<?xml version="1.0" encoding="UTF-8"?>
<svg version="1.1" xmlns="http://www.w3.org/2000/svg" width="512" height="512">
<path d="M0 0 C4.47460978 1.68638135 8.57446756 3.9314949 12.75 6.25 C13.95424859 6.89873666 15.15950863 7.54559891 16.36572266 8.19067383 C19.92478088 10.10165707 23.46323551 12.04806286 27 14 C28.78359744 14.97833277 30.56742712 15.95624234 32.3515625 16.93359375 C34.88332062 18.32087531 37.41438506 19.70923783 39.94189453 21.10424805 C48.26632457 25.66995449 56.71306316 29.98803262 65.1673584 34.30645752 C71.43600443 37.5102142 77.69716466 40.72859235 83.95703125 43.94946289 C85.25478328 44.61679403 86.55291672 45.2833844 87.8515625 45.94897461 C91.28979685 47.7115581 94.71234942 49.50093021 98.125 51.3125 C98.91084473 51.713479 99.69668945 52.11445801 100.50634766 52.52758789 C104.98802219 54.94748632 107.46538848 56.89519723 109 62 C108.91462795 67.51259548 107.44538133 70.38498423 103.875 74.5 C103.0603125 75.44488281 102.245625 76.38976562 101.40625 77.36328125 C98.91269902 80.0956626 96.36447347 82.73270434 93.703125 85.30078125 C91.12115418 87.87683011 88.76155149 90.63568684 86.3828125 93.3984375 C85.61429517 94.28852819 84.83152881 95.16847119 84 96 C84.7120459 96.27038086 85.4240918 96.54076172 86.15771484 96.81933594 C107.81341199 105.08264849 129.05508371 114.01344995 149.5 125 C150.29841309 125.42531006 151.09682617 125.85062012 151.91943359 126.28881836 C156.06543358 128.57391986 159.92844851 130.88946935 163.58061218 133.91064453 C176.53512165 144.22425962 187.75577077 144.6200312 203.86328125 144.25 C206.31420713 144.23987524 208.76516384 144.23566975 211.21611023 144.23706055 C217.61190013 144.22765607 224.00489396 144.15034957 230.39990234 144.05438232 C240.67748034 143.9115313 250.95589811 143.87199172 261.23430443 143.83557129 C264.81398639 143.81281339 268.39224237 143.75983604 271.97151184 143.70214844 C274.15719028 143.68229694 276.34287438 143.66305759 278.52856445 143.64453125 C279.52024124 143.62064835 280.51191803 143.59676544 281.53364563 143.57215881 C285.84061786 143.55601478 288.28100332 143.55789671 292.01359558 145.85302734 C294.37255698 148.4026721 296.48931261 151.02369462 298.5625 153.8125 C299.43870726 154.97761434 300.31637274 156.14163313 301.1953125 157.3046875 C301.88028809 158.21299316 301.88028809 158.21299316 302.57910156 159.13964844 C304.97875701 162.28146536 307.45859803 165.35808883 309.9375 168.4375 C315.218196 175.01135877 320.44126135 181.62820364 325.64111328 188.26611328 C327.4667462 190.59555004 329.29495471 192.92294755 331.12548828 195.24853516 C332.03759131 196.41077798 332.94616198 197.57580211 333.85107422 198.74365234 C336.20435433 201.77147727 338.60825907 204.7217001 341.13671875 207.60546875 C341.6471875 208.20552734 342.15765625 208.80558594 342.68359375 209.42382812 C343.65013411 210.55731636 344.6371534 211.67382299 345.6484375 212.76757812 C349.87611934 217.80732202 349.46031145 222.66125629 349 229 C348.41420745 232.68976239 347.53922136 236.26954911 346.60083008 239.8840332 C346.21785767 241.42280373 346.21785767 241.42280373 345.82714844 242.99266052 C344.98788386 246.34887082 344.12958192 249.69984235 343.26953125 253.05078125 C342.67548642 255.39706093 342.08212886 257.74351471 341.48942566 260.09013367 C340.24801811 264.99180296 338.99687193 269.89085756 337.73901367 274.78833008 C336.12955886 281.05888427 334.5469187 287.33585304 332.97174549 293.61509418 C331.75393129 298.45565205 330.52087159 303.29222702 329.2833004 308.12776756 C328.69347059 310.44092153 328.10863497 312.75535504 327.5289402 315.07106972 C326.71696171 318.30593115 325.88430392 321.53477806 325.04614258 324.76293945 C324.69440224 326.19142715 324.69440224 326.19142715 324.33555603 327.64877319 C322.84349249 333.28572519 321.20360758 336.90241858 317 341 C314.41139119 342.17449118 312.21280365 342.96713641 309.50390625 343.6953125 C308.70352432 343.92936798 307.9031424 344.16342346 307.07850647 344.40457153 C305.18201861 344.95731459 303.28280055 345.50073501 301.38165283 346.03723145 C297.50164208 347.14188427 293.63528578 348.28871423 289.76904297 349.44042969 C282.65547353 351.55569001 275.533405 353.6402355 268.40540123 355.70631027 C264.23446386 356.91547589 260.06522049 358.12985246 255.8996582 359.35742188 C251.80924608 360.5627864 247.71518974 361.75490825 243.61822701 362.93780899 C242.07609811 363.38537049 240.53526343 363.83741944 238.99586296 364.29427719 C219.10444124 370.1879495 219.10444124 370.1879495 212.046875 366.42578125 C211.28890625 365.72839844 210.5309375 365.03101563 209.75 364.3125 C208.92757813 363.58804687 208.10515625 362.86359375 207.2578125 362.1171875 C206.51273437 361.41851562 205.76765625 360.71984375 205 360 C203.0395119 358.19096592 201.15347164 356.58946716 199 355 C195.26660849 355.29372438 193.287902 357.26641218 190.5625 359.6875 C165.98892619 380.20335026 136.42031974 394.87493781 107 407.0625 C106.04907471 407.45735596 105.09814941 407.85221191 104.1184082 408.2590332 C102.79135864 408.79790161 102.79135864 408.79790161 101.4375 409.34765625 C100.65246094 409.66742432 99.86742187 409.98719238 99.05859375 410.31665039 C97 411 97 411 94 411 C93.94175049 411.96498413 93.94175049 411.96498413 93.88232422 412.94946289 C93.12538903 424.00892442 91.82414782 435.00667533 90.52587891 446.01342773 C90.25722666 448.30809752 89.99360521 450.60336155 89.73486328 452.89916992 C89.35764773 456.24535249 88.96567326 459.58951243 88.5703125 462.93359375 C88.45769073 463.95553329 88.34506897 464.97747284 88.22903442 466.03038025 C87.05031072 475.71539895 87.05031072 475.71539895 84 480 C79.57686481 482.56025639 75.02834394 483.98205987 70.11230469 485.24902344 C69.34364578 485.45279602 68.57498688 485.6565686 67.78303528 485.86651611 C65.24757898 486.53703435 62.70978123 487.19819612 60.171875 487.859375 C58.38169906 488.33096688 56.59168309 488.80316643 54.80181885 489.27593994 C50.07867708 490.52186565 45.3535244 491.75998667 40.62786865 492.99633789 C34.98968896 494.47287588 29.3538175 495.95819371 23.71775055 497.44277191 C19.16654173 498.64133035 14.61474625 499.83753394 10.06140137 501.0279541 C2.31930614 503.05428119 -5.41560661 505.09480515 -13.11914062 507.26367188 C-14.31021423 507.59610901 -15.50128784 507.92854614 -16.72845459 508.27105713 C-18.83991679 508.86411824 -20.94858152 509.46730119 -23.05328369 510.08392334 C-28.96298749 511.73942769 -34.86520009 513.14268904 -41 512 C-45.65517796 508.7894279 -46.82211931 505.49653259 -48.015625 500.09375 C-48.24986176 499.0650177 -48.24986176 499.0650177 -48.48883057 498.01550293 C-49.01322485 495.68104448 -49.50773769 493.34143422 -50 491 C-50.38434178 489.22256455 -50.76912376 487.44522424 -51.15429688 485.66796875 C-52.38239065 479.95135084 -53.5679894 474.22629104 -54.75 468.5 C-55.1650695 466.50124078 -55.58043228 464.50254244 -55.99609375 462.50390625 C-57.00076858 457.66996401 -58.00150486 452.83522232 -59 448 C-59.62003906 448.0501123 -60.24007812 448.10022461 -60.87890625 448.15185547 C-67.62048092 448.6928006 -74.36372957 449.20811733 -81.10839844 449.70898438 C-83.64841935 449.89892822 -86.18815329 450.09276125 -88.72753906 450.29101562 C-104.47788788 451.50735462 -120.18865715 452.23134662 -135.98553467 452.35247803 C-137.77616792 452.36740368 -139.56676029 452.38868913 -141.35723877 452.41656494 C-143.86745375 452.45224963 -146.37628005 452.46061905 -148.88671875 452.4609375 C-149.63425919 452.4752179 -150.38179962 452.48949829 -151.1519928 452.50421143 C-154.81880489 452.47238013 -156.83495411 452.10670988 -159.94458008 450.09619141 C-163.33663812 446.63684822 -163.38955168 443.94664757 -163.359375 439.26171875 C-162.78943134 435.67479071 -160.79773951 434.13161106 -158 432 C-155.05932343 430.52966172 -152.06318031 430.80181426 -148.8359375 430.75390625 C-147.32185413 430.72230618 -145.80777553 430.69047624 -144.29370117 430.65844727 C-143.49241791 430.64306915 -142.69113464 430.62769104 -141.86557007 430.61184692 C-115.50217966 430.08949574 -89.26360465 428.3525291 -63 426 C-63.2165625 425.24976563 -63.433125 424.49953125 -63.65625 423.7265625 C-67.35184282 410.14183705 -67.35184282 410.14183705 -66 404 C-62.84378362 399.1077893 -59.16447602 397.20398431 -54.0625 394.8125 C-53.27898163 394.43334946 -52.49546326 394.05419891 -51.6882019 393.66355896 C-49.13112605 392.43017605 -46.56588261 391.21494099 -44 390 C-42.21326504 389.14292385 -40.42697282 388.28492413 -38.64111328 387.42602539 C-27.68226527 382.16861687 -16.67982702 377.00289222 -5.62402344 371.95239258 C1.20166159 368.81987285 7.94514744 365.55747407 14.6640625 362.203125 C16.35132776 361.3651708 18.03866506 360.52736165 19.72607422 359.68969727 C23.0152875 358.05621169 26.29336852 356.40269066 29.56689453 354.73803711 C31.08066292 353.98472655 32.59480596 353.23216825 34.109375 352.48046875 C34.78843903 352.12805115 35.46750305 351.77563354 36.16714478 351.41253662 C41.01324543 349.03803353 44.60007305 348.50935426 50 349 C52.09130859 349.8034668 52.09130859 349.8034668 53.6484375 350.94921875 C54.25212158 351.37871826 54.85580566 351.80821777 55.4777832 352.25073242 C56.41690552 352.96193237 56.41690552 352.96193237 57.375 353.6875 C58.39049927 354.42093628 58.39049927 354.42093628 59.42651367 355.16918945 C60.87497505 356.21806388 62.31747064 357.27521815 63.75439453 358.33984375 C66.03913634 360.02893315 68.34220916 361.68959146 70.65234375 363.34375 C73.722126 365.54272432 76.7814937 367.75487942 79.83203125 369.98046875 C82.37022617 371.82941992 84.92215447 373.64954311 87.51171875 375.42578125 C88.49785156 376.11027344 89.48398438 376.79476563 90.5 377.5 C91.75296875 378.35078125 91.75296875 378.35078125 93.03125 379.21875 C95.3247761 381.29384504 96.07941836 383.07815394 97 386 C100.64563977 385.38967538 103.71153586 384.3813946 107.0703125 382.84765625 C108.0394458 382.40623291 109.0085791 381.96480957 110.00708008 381.51000977 C111.03599365 381.03233154 112.06490723 380.55465332 113.125 380.0625 C114.19451904 379.56741943 115.26403809 379.07233887 116.3659668 378.56225586 C138.45465799 368.24740126 162.70482075 356.62464112 180 339 C172.3528576 332.32294044 164.68896441 325.69313116 156.80078125 319.30078125 C152.3200238 315.61993587 147.93840814 311.82486807 143.54296875 308.04296875 C138.59441284 303.78648075 133.6052146 299.57832994 128.61767578 295.36767578 C126.97091021 293.97540583 125.32689933 292.57994527 123.68359375 291.18359375 C122.58079141 290.24732251 121.47792729 289.31112404 120.375 288.375 C119.84076416 287.92108887 119.30652832 287.46717773 118.75610352 286.99951172 C116.1421721 284.78566778 113.51351819 282.5955193 110.84375 280.44921875 C109.8640625 279.66160156 108.884375 278.87398438 107.875 278.0625 C106.57175781 277.02802734 106.57175781 277.02802734 105.2421875 275.97265625 C101.58554485 272.75557518 100.16591839 271.28382753 99.5234375 266.3125 C99.7400572 261.15171428 102.04036123 257.36182666 104.625 253 C105.11718018 252.13826172 105.60936035 251.27652344 106.11645508 250.38867188 C107.72637967 247.5816496 109.36131231 244.79031434 111 242 C112.09577026 240.11500064 113.19081689 238.22958044 114.28515625 236.34375 C116.60195501 232.35942072 118.92954209 228.38159407 121.26171875 224.40625 C125.22613988 217.63347868 129.11623491 210.8191594 133 204 C139.29993631 192.94174942 145.67883759 181.93214381 152.109375 170.94921875 C152.60501953 170.09634277 153.10066406 169.2434668 153.61132812 168.36474609 C154.49353548 166.86244996 155.39159951 165.369268 156.31054688 163.88916016 C157.28047071 162.30204975 158.15193797 160.65543422 159 159 C157.58932334 154.76797001 154.57293557 153.66190314 150.875 151.5625 C150.12001221 151.12856934 149.36502441 150.69463867 148.5871582 150.24755859 C146.06760614 148.81398966 143.53653034 147.40329769 141 146 C140.13971191 145.52320801 139.27942383 145.04641602 138.39306641 144.55517578 C119.17232683 134.00268219 99.13646586 125.10141967 78.5 117.6875 C77.68764893 117.39125732 76.87529785 117.09501465 76.03833008 116.78979492 C71.02677861 115.0519868 71.02677861 115.0519868 66 116 C64.14794515 117.77038944 62.48534256 119.51170686 60.8125 121.4375 C60.33127686 121.97737549 59.85005371 122.51725098 59.35424805 123.07348633 C58.36813034 124.18069193 57.3854545 125.29097261 56.40625 126.40429688 C53.67386368 129.50479635 50.88780837 132.55730355 48.1015625 135.609375 C46.70623805 137.1966214 45.36562183 138.83375417 44.0859375 140.515625 C40.59557753 144.9683476 38.07403215 147.38045693 32.45947266 148.61254883 C31.39698303 148.85067291 30.33449341 149.088797 29.23980713 149.33413696 C28.17067078 149.55387177 27.10153442 149.77360657 26 150 C25.04639587 150.19854584 24.09279175 150.39709167 23.11029053 150.60165405 C20.23138365 151.18020367 17.34820689 151.72652361 14.4609375 152.26171875 C12.89057236 152.55499809 12.89057236 152.55499809 11.28848267 152.85420227 C9.09569485 153.26201848 6.90252314 153.66777566 4.70898438 154.0715332 C1.37451604 154.68758941 -1.95721409 155.31721397 -5.2890625 155.94726562 C-7.43474151 156.3445843 -9.58057009 156.74109632 -11.7265625 157.13671875 C-12.70912018 157.3241716 -13.69167786 157.51162445 -14.70401001 157.70475769 C-30.47349302 160.5604896 -30.47349302 160.5604896 -35.7890625 157.27734375 C-39.11509834 152.34705387 -41.19301979 147.07840282 -43.375 141.5625 C-43.88222987 140.30721689 -44.39047514 139.05234367 -44.8996582 137.79785156 C-46.62100674 133.54026341 -48.31243043 129.27107014 -50 125 C-50.32470276 124.17884705 -50.64940552 123.35769409 -50.98394775 122.51165771 C-54.06287305 114.72255054 -57.14149608 106.93334482 -60.18701172 99.13110352 C-60.5003093 98.33098343 -60.81360687 97.53086334 -61.13639832 96.70649719 C-61.72851462 95.19391125 -62.31854348 93.68050603 -62.90620422 92.16618347 C-64.03588658 88.83332285 -64.03588658 88.83332285 -66 86 C-68.28317403 85.70961462 -70.57445624 85.48272123 -72.8671875 85.28125 C-73.5683519 85.2187204 -74.2695163 85.1561908 -74.9919281 85.09176636 C-77.2858536 84.88914146 -79.5803237 84.69392634 -81.875 84.5 C-82.65918304 84.43274719 -83.44336609 84.36549438 -84.25131226 84.29620361 C-98.05834007 83.11432585 -111.81197807 82.09106623 -125.673172 81.89904785 C-129.03621771 81.85060607 -132.39898131 81.78860914 -135.7618103 81.72711182 C-138.26943402 81.68816881 -140.7765639 81.671625 -143.28442383 81.65576172 C-144.85239382 81.62961093 -146.42034771 81.60247102 -147.98828125 81.57421875 C-148.70628906 81.57617752 -149.42429688 81.57813629 -150.1640625 81.58015442 C-155.20490985 81.45748653 -158.11290451 80.169911 -162 77 C-163.72869779 73.54260443 -163.48966895 69.78024432 -163 66 C-161.20606332 63.12970131 -160.01736724 61.50868362 -157 60 C-154.59702353 59.87545434 -152.22461437 59.81181999 -149.8203125 59.796875 C-149.076035 59.79008728 -148.33175751 59.78329956 -147.56492615 59.77630615 C-145.08490961 59.75906426 -142.60507304 59.75306936 -140.125 59.75 C-139.2775119 59.74766357 -138.4300238 59.74532715 -137.55685425 59.74291992 C-116.3061891 59.7210691 -95.17093772 61.29532317 -74 63 C-73.61038086 62.39019287 -73.22076172 61.78038574 -72.81933594 61.15209961 C-72.29629883 60.34780518 -71.77326172 59.54351074 -71.234375 58.71484375 C-70.46432129 57.52169556 -70.46432129 57.52169556 -69.67871094 56.30444336 C-67.52062184 53.34193566 -65.01872706 51.19479267 -62.203125 48.87890625 C-59.65998793 46.71002517 -57.34337677 44.38291227 -55 42 C-52.10408042 39.06881809 -49.19757429 36.23596826 -46.0625 33.5625 C-42.71074927 30.69827665 -39.59443244 27.63666284 -36.5 24.5 C-32.81656269 20.76629402 -29.04056513 17.22771246 -25.046875 13.828125 C-21.6076993 10.75649479 -18.41800547 7.43635412 -15.19921875 4.13671875 C-10.33591862 -0.58837037 -6.51977125 -1.01885091 0 0 Z " fill="#052A74" transform="translate(163,0)"/>
<path d="M0 0 C2.20568967 -0.01317424 4.41136203 -0.02961309 6.61700439 -0.04916382 C11.23784689 -0.07585655 15.85591204 -0.05822514 20.4765625 -0.01025391 C26.37802531 0.04681313 32.27147801 -0.01306214 38.17222214 -0.10752296 C42.72831706 -0.16613551 47.28252358 -0.15838119 51.8388443 -0.13148117 C54.01244597 -0.12719425 56.18620171 -0.14401015 58.35945892 -0.18294144 C76.19160836 -0.44825859 76.19160836 -0.44825859 81.56091309 4.75457764 C84.46002245 8.14026448 86.63322733 11.79433036 88.828125 15.6640625 C89.90038318 17.07431984 90.99478975 18.46915561 92.140625 19.8203125 C92.58994385 20.37984619 93.0392627 20.93937988 93.50219727 21.51586914 C94.15853149 22.33172485 94.15853149 22.33172485 94.828125 23.1640625 C100.07378052 29.70422285 105.26415569 36.28612588 110.43408203 42.88623047 C111.9057579 44.76306824 113.38026231 46.63765496 114.85546875 48.51171875 C115.35296631 49.14392334 115.85046387 49.77612793 116.36303711 50.42749023 C117.3127835 51.63425847 118.26279937 52.84081469 119.21313477 54.04711914 C120.42150184 55.58345539 121.62502082 57.12360141 122.828125 58.6640625 C123.40208008 59.20740234 123.97603516 59.75074219 124.56738281 60.31054688 C126.5601971 64.03067269 125.27289052 67.38101531 124.3125 71.28125 C124.11952332 72.12332001 123.92654663 72.96539001 123.72772217 73.83297729 C123.1187571 76.44989031 122.47974319 79.05746598 121.828125 81.6640625 C121.63532959 82.43657349 121.44253418 83.20908447 121.24389648 84.00500488 C120.10875423 88.50029547 118.919667 92.97999362 117.70901489 97.45547485 C113.70386426 112.27005685 109.93801826 127.12918628 106.42871094 142.06884766 C106.12868164 143.33390137 105.82865234 144.59895508 105.51953125 145.90234375 C105.26373291 146.99587158 105.00793457 148.08939941 104.74438477 149.21606445 C104.29083618 150.92282349 104.29083618 150.92282349 103.828125 152.6640625 C103.67160965 153.42592361 103.5150943 154.18778473 103.35383606 154.97273254 C101.86989145 160.93532447 101.86989145 160.93532447 99.12846375 162.85301208 C96.88200097 163.73689395 94.68261713 164.33642238 92.33203125 164.88671875 C91.47901428 165.11891617 90.62599731 165.35111359 89.74713135 165.59034729 C86.96969674 166.33799857 84.18176815 167.03203409 81.390625 167.7265625 C79.47840454 168.23172044 77.56718801 168.74069363 75.65698242 169.25341797 C71.84137605 170.27339008 68.02171787 171.27496136 64.19726562 172.26123047 C56.9717691 174.13392001 49.80748427 176.2054508 42.640625 178.2890625 C39.5383208 179.17726475 36.43528737 180.06266723 33.33056641 180.94238281 C31.80185322 181.38324878 30.27685194 181.83762829 28.75927734 182.31542969 C24.98778926 183.49151822 21.767043 184.21305919 17.828125 183.6640625 C15.22265625 181.79296875 15.22265625 181.79296875 12.640625 179.2265625 C11.67676002 178.29580928 10.71055453 177.36747457 9.7421875 176.44140625 C9.2565332 175.97202637 8.77087891 175.50264648 8.27050781 175.01904297 C6.11195078 172.99128543 3.82318184 171.14395701 1.515625 169.2890625 C-2.73314802 165.85619895 -6.90729332 162.35180791 -11.046875 158.7890625 C-15.59479081 154.87569632 -20.15153971 150.97400976 -24.734375 147.1015625 C-25.26659668 146.65184082 -25.79881836 146.20211914 -26.34716797 145.73876953 C-27.4190084 144.83337808 -28.49094826 143.92810433 -29.56298828 143.02294922 C-31.72490663 141.19696477 -33.8851108 139.36895925 -36.04516602 137.54077148 C-37.12753754 136.62474371 -38.21005653 135.70889014 -39.29272461 134.79321289 C-42.02824232 132.47949462 -44.76188711 130.16362355 -47.4921875 127.84375 C-54.32538116 122.04167781 -61.21773139 116.32116355 -68.171875 110.6640625 C-70.23542379 108.97784088 -72.2973417 107.28963829 -74.359375 105.6015625 C-75.28105469 104.84746094 -76.20273437 104.09335937 -77.15234375 103.31640625 C-78.15201172 102.49849609 -78.15201172 102.49849609 -79.171875 101.6640625 C-75.71434745 94.50501498 -71.90825264 87.62837503 -67.859375 80.7890625 C-62.59014094 71.82329048 -57.3829091 62.82456729 -52.234375 53.7890625 C-50.89356704 51.4373072 -49.55240164 49.08575607 -48.2109375 46.734375 C-47.87872192 46.15205109 -47.54650635 45.56972717 -47.20422363 44.96975708 C-43.52451855 38.52381131 -39.81915541 32.09273431 -36.109375 25.6640625 C-35.51455322 24.63297363 -34.91973145 23.60188477 -34.30688477 22.53955078 C-33.19595507 20.61573424 -32.06532624 18.70308147 -30.91018677 16.80548096 C-29.09906018 13.74523685 -29.09906018 13.74523685 -28.08784485 10.52383423 C-23.03264212 -2.17831451 -11.76386725 -0.11810202 0 0 Z " fill="#D36A5C" transform="translate(365.171875,162.3359375)"/>
<path d="M0 0 C3.61195954 3.4651838 6.63491809 7.02738947 9.625 11.0625 C15.29861202 18.59732559 21.49144166 25.69637613 28.3203125 32.21484375 C30 34 30 34 30 36 C30.59288818 36.26337158 31.18577637 36.52674316 31.79663086 36.7980957 C34.09308561 38.05077678 35.47666896 39.32665144 37.25390625 41.23046875 C40.89239256 44.97150213 44.78040166 48.16678439 48.9375 51.3125 C50.04665771 52.15325073 50.04665771 52.15325073 51.17822266 53.01098633 C61.58151434 60.78965526 72.53847906 67.34514919 84 73.4375 C84.77714355 73.85088623 85.55428711 74.26427246 86.35498047 74.69018555 C91.13602769 77.17737907 95.91812836 79.20402036 101 81 C101 80.34 101 79.68 101 79 C100.38125 78.7525 99.7625 78.505 99.125 78.25 C96.50556299 76.7091547 95.86519357 75.91019654 95 73 C95.07629842 68.80358689 95.62885708 66.54511616 98 63.0625 C101.53765395 60.63036291 103.62297923 60.25592356 107.83984375 60.5234375 C111.54702808 61.34129733 112.97314048 62.86163687 115 66 C115.94234059 70.17322263 115.5108945 73.0803899 113.4375 76.8125 C110.42089413 79.5197104 107.79460995 80.6135079 104 82 C118.95539852 89.26515484 135.58078806 92.83266402 152 95 C153.96492567 101.73772097 152.29936025 108.90988621 149.33477783 115.12518311 C144.93879832 121.29973625 135.34333476 122.08090755 128.4375 123.5625 C126.53358685 124.02763195 124.63147177 124.50018399 122.73120117 124.97998047 C118.94027068 125.9291219 115.14362529 126.84241952 111.33691406 127.72607422 C104.08348611 129.42799315 96.95563947 131.51569189 89.8125 133.625 C86.71062386 134.51474809 83.6071747 135.39860123 80.50244141 136.27832031 C78.97372822 136.71918628 77.44872694 137.17356579 75.93115234 137.65136719 C72.15966426 138.82745572 68.938918 139.54899669 65 139 C62.39453125 137.12890625 62.39453125 137.12890625 59.8125 134.5625 C58.84863502 133.63174678 57.88242953 132.70341207 56.9140625 131.77734375 C56.4284082 131.30796387 55.94275391 130.83858398 55.44238281 130.35498047 C53.28382578 128.32722293 50.99505684 126.47989451 48.6875 124.625 C44.43872698 121.19213645 40.26458168 117.68774541 36.125 114.125 C31.57708419 110.21163382 27.02033529 106.30994726 22.4375 102.4375 C21.90527832 101.98777832 21.37305664 101.53805664 20.82470703 101.07470703 C19.7528666 100.16931558 18.68092674 99.26404183 17.60888672 98.35888672 C15.44696837 96.53290227 13.2867642 94.70489675 11.12670898 92.87670898 C10.04433746 91.96068121 8.96181847 91.04482764 7.87915039 90.12915039 C5.14363268 87.81543212 2.40998789 85.49956105 -0.3203125 83.1796875 C-7.15350616 77.37761531 -14.04585639 71.65710105 -21 66 C-23.06354879 64.31377838 -25.1254667 62.62557579 -27.1875 60.9375 C-28.10917969 60.18339844 -29.03085937 59.42929687 -29.98046875 58.65234375 C-30.98013672 57.83443359 -30.98013672 57.83443359 -32 57 C-28.4937031 49.72918286 -24.61185299 42.75593759 -20.5 35.8125 C-13.52603956 23.95321769 -6.7332314 11.99727102 0 0 Z " fill="#B45248" transform="translate(318,207)"/>
<path d="M0 0 C2.12770416 1.19506346 4.05379933 2.40382726 5.984375 3.89282227 C6.63994385 4.39112549 7.2955127 4.88942871 7.97094727 5.40283203 C9.37089829 6.49017424 10.7684502 7.58061102 12.16381836 8.67382812 C16.12146199 11.74564211 19.91872295 14.12902506 24.41015625 16.38110352 C26.55566406 17.921875 26.55566406 17.921875 28.34765625 20.31860352 C28.55997776 23.22925784 28.53361647 25.67360355 28.27734375 28.54907227 C28.21796127 29.3777179 28.1585788 30.20636353 28.09739685 31.06011963 C27.33352609 40.88933481 26.10092833 50.67518702 24.81860352 60.44799805 C24.40532206 63.60553756 24.00570016 66.76460875 23.60742188 69.92407227 C23.34584837 71.95672698 23.08350724 73.98928309 22.8203125 76.02172852 C22.70252945 76.95406311 22.5847464 77.88639771 22.46339417 78.84698486 C21.79992612 83.84304093 20.87500763 88.51354539 19.34765625 93.31860352 C18.588479 93.50447021 17.82930176 93.69033691 17.04711914 93.88183594 C-0.14014944 98.02562931 -0.14014944 98.02562931 -17.15234375 102.81860352 C-25.76338699 105.45722283 -34.50057676 107.56702737 -43.24414062 109.71728516 C-50.9832823 111.62734656 -58.67793194 113.64116742 -66.32397461 115.89672852 C-69.6274906 116.8525496 -72.16905863 117.31860352 -75.65234375 117.31860352 C-79.46503762 101.33461769 -82.71432379 85.25432736 -85.88476562 69.13305664 C-86.05269119 68.2825473 -86.22061676 67.43203796 -86.39363098 66.55575562 C-86.70887382 64.95799686 -87.0223921 63.3598964 -87.33378601 61.76138306 C-88.04821464 58.14106188 -88.82846574 54.56238979 -89.75512695 50.98999023 C-90.58554414 47.59194571 -90.82613968 44.79452205 -90.65234375 41.31860352 C-80.33509696 36.35709434 -70.00824889 31.41672279 -59.64453125 26.55297852 C-58.9553511 26.22937347 -58.26617096 25.90576843 -57.55610657 25.57235718 C-53.9795869 23.89354313 -50.40166036 22.2178069 -46.82202148 20.5456543 C-39.42136115 17.08121134 -32.06303868 13.55069876 -24.7578125 9.88891602 C-23.32825381 9.17739415 -21.89856851 8.46612657 -20.46875 7.75512695 C-17.76459269 6.41017117 -15.07322846 5.04313036 -12.38671875 3.66333008 C-11.1671253 3.05531289 -9.94709704 2.44816683 -8.7265625 1.84204102 C-7.67041748 1.30498535 -6.61427246 0.76792969 -5.52612305 0.21459961 C-2.65234375 -0.68139648 -2.65234375 -0.68139648 0 0 Z " fill="#D36A5C" transform="translate(209.65234375,371.681396484375)"/>
<path d="M0 0 C3.62909676 0.90686606 6.53426215 2.25788317 9.85009766 3.98950195 C10.46971375 4.31050369 11.08932983 4.63150543 11.72772217 4.9622345 C13.74169601 6.00863698 15.74903951 7.06709574 17.75634766 8.1262207 C19.1620088 8.86028637 20.56793594 9.59384291 21.97412109 10.3269043 C30.72412782 14.90027339 39.41451206 19.57825029 48.05957031 24.34716797 C59.66946135 30.73315413 71.47298157 36.75586545 83.25634766 42.8137207 C83.25634766 45.8137207 83.25634766 45.8137207 81.97119141 47.35668945 C81.09140625 48.17073242 81.09140625 48.17073242 80.19384766 49.0012207 C77.69373428 51.39674766 75.32417388 53.8112101 73.06884766 56.4387207 C69.87808921 60.14086482 66.58065669 63.73208211 63.25634766 67.3137207 C59.4673324 71.39924236 55.73462229 75.51766121 52.08837891 79.73168945 C49.26285107 82.94279038 46.35965879 86.0823809 43.46337891 89.22949219 C39.6202576 93.40769226 35.81923172 97.62228788 32.03369141 101.8527832 C28.53152637 105.71671034 26.63123681 106.31268585 21.44775391 107.2512207 C20.76639877 107.37682373 20.08504364 107.50242676 19.38304138 107.63183594 C17.19624906 108.03317892 15.00766543 108.42359145 12.81884766 108.8137207 C11.37926336 109.07602264 9.93980849 109.339036 8.50048828 109.6027832 C5.70545626 110.11390405 2.90940325 110.61872555 0.11230469 111.1184082 C-2.27943238 111.54969016 -4.66948701 111.99056399 -7.05664062 112.4465332 C-8.01683105 112.62958008 -8.97702148 112.81262695 -9.96630859 113.0012207 C-11.1865271 113.23905273 -11.1865271 113.23905273 -12.43139648 113.48168945 C-14.8978288 113.83585986 -17.2552929 113.87112103 -19.74365234 113.8137207 C-23.44608123 106.74839417 -26.44092622 99.44191115 -29.41943359 92.0480957 C-29.68179495 91.39847115 -29.9441563 90.74884659 -30.214468 90.07953644 C-31.59818357 86.65292727 -32.97791272 83.22474588 -34.35424805 79.79516602 C-35.77455506 76.2582529 -37.20844044 72.72700924 -38.64539814 69.19683456 C-39.75179648 66.47178754 -40.84821065 63.74280509 -41.94191551 61.01264191 C-42.46648276 59.70819505 -42.9947987 58.40524912 -43.5269413 57.10387421 C-44.26766947 55.28974149 -44.99296594 53.46933089 -45.7175293 51.64868164 C-46.13404251 50.61580017 -46.55055573 49.5829187 -46.97969055 48.51873779 C-47.7733776 45.70847026 -47.83333424 44.48105203 -46.74365234 41.8137207 C-45.39599609 40.13793945 -45.39599609 40.13793945 -43.68115234 38.5012207 C-43.04564453 37.89149414 -42.41013672 37.28176758 -41.75537109 36.65356445 C-39.8620231 34.92197823 -37.93907467 33.23638278 -35.99365234 31.5637207 C-32.58526776 28.63092467 -29.39965721 25.51299555 -26.24365234 22.3137207 C-22.55971574 18.57948287 -18.796378 15.02766278 -14.77880859 11.65356445 C-11.35831284 8.56133125 -8.31326085 5.08803839 -5.23583984 1.6574707 C-2.74365234 -0.1862793 -2.74365234 -0.1862793 0 0 Z " fill="#D36A5C" transform="translate(160.74365234375,23.186279296875)"/>
<path d="M0 0 C2.6875 1.40625 2.6875 1.40625 5 3.5 C6.36511719 4.71429688 6.36511719 4.71429688 7.7578125 5.953125 C8.84025785 6.96692071 9.92079186 7.9827589 11 9 C12.43466794 10.32837117 13.86958067 11.65647799 15.3046875 12.984375 C18.95407311 16.38111084 22.58710572 19.7935473 26.17724609 23.25292969 C27.73220777 24.74332692 29.31638288 26.20314564 30.90625 27.65625 C33.2250308 30.25190015 33.90170233 31.87461086 34.625 35.25 C34.84929687 36.2915625 35.07359375 37.333125 35.3046875 38.40625 C35.53414063 39.5921875 35.76359375 40.778125 36 42 C36.21317871 43.03253906 36.21317871 43.03253906 36.43066406 44.0859375 C36.88755407 46.3042717 37.32242704 48.52584053 37.75 50.75 C37.89002441 51.44641602 38.03004883 52.14283203 38.17431641 52.86035156 C39.07983123 57.87094606 39.1700551 62.01187034 38 67 C34.03030182 72.43964918 27.54695257 75.60811283 21.875 79.0625 C19.71826586 80.38853581 17.56202233 81.71536987 15.40625 83.04296875 C14.33117187 83.70345215 13.25609375 84.36393555 12.1484375 85.04443359 C9.21189867 86.8683849 6.30405527 88.72855956 3.40625 90.61328125 C2.55305176 91.16556396 1.69985352 91.71784668 0.82080078 92.28686523 C-0.76907059 93.31921833 -2.35432763 94.35872512 -3.93408203 95.40649414 C-7.89742433 97.96315796 -11.14119735 100.01302628 -16 100 C-22.02324244 98.22924721 -25.0243228 95.32484347 -28.875 90.5 C-29.39328369 89.87343506 -29.91156738 89.24687012 -30.44555664 88.60131836 C-31.97701537 86.74461079 -33.49041924 84.87451176 -35 83 C-36.47871931 81.18713501 -37.95784458 79.37460102 -39.4375 77.5625 C-40.15164063 76.68335937 -40.86578125 75.80421875 -41.6015625 74.8984375 C-44.45509702 71.45002933 -47.37603789 68.06531499 -50.3125 64.6875 C-50.85946533 64.05803467 -51.40643066 63.42856934 -51.9699707 62.7800293 C-54.21347382 60.20001715 -56.45826685 57.62113979 -58.70556641 55.04443359 C-60.34900348 53.15773553 -61.98743123 51.26679167 -63.625 49.375 C-64.37003784 48.5236145 -64.37003784 48.5236145 -65.13012695 47.6550293 C-72.42700602 39.20501321 -72.42700602 39.20501321 -72.4375 34 C-72.45683594 33.360625 -72.47617187 32.72125 -72.49609375 32.0625 C-71.70324166 28.76623303 -70.45761257 27.38479442 -68 25 C-64.58033547 23.06398489 -60.99898287 21.5731568 -57.375 20.0625 C-56.29992187 19.60447998 -55.22484375 19.14645996 -54.1171875 18.67456055 C-51.73426737 17.66373146 -49.34834602 16.65995731 -46.95996094 15.66210938 C-43.42421858 14.18385418 -39.90389937 12.67135074 -36.38491821 11.15370178 C-33.34590978 9.84694968 -30.30041339 8.55584959 -27.25323486 7.26828003 C-25.76182106 6.63565022 -24.272475 5.99812138 -22.78533936 5.35549927 C-7.54169154 -1.21316145 -7.54169154 -1.21316145 0 0 Z " fill="#052A74" transform="translate(393,0)"/>
<path d="M0 0 C2.53258108 1.95910196 4.90739183 3.99879356 7.26367188 6.16870117 C9.6508742 8.34395297 9.6508742 8.34395297 12.52148438 10.37963867 C17.98878562 14.62879941 21.0831065 17.79809371 22.09814453 24.66894531 C22.4111346 27.87338424 22.57501943 31.03865568 22.62695312 34.25854492 C16.35311296 38.87722625 9.84830055 43.11842536 3.25195312 47.25854492 C2.4670752 47.76361572 1.68219727 48.26868652 0.87353516 48.7890625 C0.12442871 49.2533667 -0.62467773 49.7176709 -1.39648438 50.19604492 C-2.06599121 50.61756836 -2.73549805 51.0390918 -3.42529297 51.47338867 C-5.86516215 52.4569208 -6.95555459 52.22026525 -9.37304688 51.25854492 C-11.41601562 49.36010742 -11.41601562 49.36010742 -13.56054688 46.88354492 C-14.35203125 45.9734668 -15.14351563 45.06338867 -15.95898438 44.12573242 C-18.97496633 40.54364382 -21.94312349 36.92604333 -24.88867188 33.28588867 C-29.61614157 27.52521413 -34.50520004 21.90063474 -39.37304688 16.25854492 C-36.61451143 12.80003357 -32.75192718 11.47988091 -28.78320312 9.83276367 C-28.04226913 9.52152054 -27.30133514 9.2102774 -26.53794861 8.88960266 C-24.9736565 8.23605006 -23.40765495 7.58657604 -21.84008789 6.94091797 C-19.44073027 5.94818954 -17.0526171 4.93124066 -14.6640625 3.9128418 C-13.1419029 3.28047141 -11.6191355 2.64956165 -10.09570312 2.02026367 C-9.38205093 1.71311935 -8.66839874 1.40597504 -7.93312073 1.08952332 C-2.95049618 -0.92187828 -2.95049618 -0.92187828 0 0 Z " fill="#D16A5C" transform="translate(387.373046875,22.741455078125)"/>
<path d="M0 0 C2.8100346 1.79363911 4.50940468 3.01880935 6 6 C6.42071592 9.05920574 6.48514117 11.9467746 6 15 C3.81840855 17.75569447 2.12822506 19.43588747 -1 21 C-5.4188083 21.5098625 -7.50771901 21.29172207 -11.375 19 C-14.21444996 15.75491433 -14.95091395 14.11614982 -15.171875 9.92578125 C-14.82741841 6.06630171 -12.85585578 3.91925251 -10.3125 1.1875 C-6.91635199 -0.5564679 -3.6895784 -0.68081506 0 0 Z " fill="#FDCB4F" transform="translate(199,218)"/>
<path d="M0 0 C3.5386994 1.65139305 4.81070153 2.71605229 7 6 C7.42733494 11.29895331 7.51322472 14.73394141 4 19 C0.57080428 21.57189679 -2.83939486 21.502142 -7 21 C-10.58014577 18.94473113 -12.36748152 17.74665002 -13.76953125 13.875 C-14.36459677 10.58267488 -14.60197176 8.1310485 -13 5.12109375 C-8.98132144 0.15754731 -6.22622252 -0.42211678 0 0 Z " fill="#FDCB50" transform="translate(493,69)"/>
<path d="M0 0 C3.73325038 2.51422985 4.74796824 4.13364082 6 8.4375 C6 12.64943093 5.47814609 14.59254913 3 18 C-0.96129054 20.43771726 -3.05940621 21.12753814 -7.6875 20.5 C-11.53260329 18.75882115 -13.01593554 17.73004118 -15 14 C-15.9095487 9.2720629 -15.65578189 6.07111043 -13.125 1.9375 C-8.72930779 -0.78782917 -5.04149985 -1.01823396 0 0 Z " fill="#FDCB4F" transform="translate(315,445)"/>
<path d="M0 0 C3.73325038 2.51422985 4.74796824 4.13364082 6 8.4375 C6 12.53094236 5.22004022 14.59065251 3 18 C-1.24643875 20.83095916 -5.01894953 20.8804086 -10 20 C-13.41019725 17.34004615 -14.59370586 15.92989716 -15.46875 11.7734375 C-15.74309826 7.67193094 -15.29681659 5.48480043 -13.125 1.9375 C-8.72930779 -0.78782917 -5.04149985 -1.01823396 0 0 Z " fill="#FDCB4F" transform="translate(465,394)"/>
<path d="M0 0 C3.0432531 1.9874306 4.62073803 3.32041127 5.4375 6.9375 C5.67021319 10.77726765 5.23162678 12.63711804 3.125 15.9375 C0.20157849 18.77493852 -0.63926349 18.96451772 -4.8125 19.375 C-8.23041924 19.31907041 -8.97465048 19.0177986 -11.9375 16.9375 C-14.43209094 13.38459775 -15.07615714 11.34095695 -15 7 C-11.26359549 0.04255712 -7.58786981 -1.12509794 0 0 Z " fill="#092B74" transform="translate(428,268)"/>
<path d="M0 0 C2.66058731 2.14144833 3.7253011 3.56867416 4.37109375 6.93359375 C4.61139858 10.78575305 4.2437079 12.61819095 2.125 15.9375 C-0.60897987 18.5910687 -1.47384331 18.95036258 -5.3125 19.3125 C-9.57536111 18.95124058 -11.01992054 17.98007946 -14 15 C-15.60086627 11.79826746 -15.49917089 8.47422941 -15 5 C-10.89875972 -1.42527644 -7.07130996 -1.79608761 0 0 Z " fill="#092B74" transform="translate(389,207)"/>
</svg>
