<?xml version="1.0" encoding="UTF-8"?>
<svg version="1.1" xmlns="http://www.w3.org/2000/svg" width="512" height="512">
<path d="M0 0 C3.32274404 2.45594125 4.77618008 3.9256644 5.625 8 C4.81605525 11.88293482 3.15899683 13.7672148 0 16 C-3.63582528 17.63695772 -7.39846061 18.8306987 -11.1875 20.0625 C-52.50883902 34.26954414 -91.11976901 57.84548982 -124.07421875 86.4765625 C-126.93833734 88.94681699 -129.86165224 91.32197772 -132.8125 93.6875 C-136.81692754 96.94327369 -140.48344541 100.36802446 -144.07421875 104.0703125 C-147.22394816 107.22643081 -150.60595087 110.11144755 -154 113 C-153.28714844 113.4846875 -152.57429687 113.969375 -151.83984375 114.46875 C-142.37361704 121.09383464 -136.18597233 127.67585232 -131 138 C-130.26136719 137.23816406 -129.52273437 136.47632813 -128.76171875 135.69140625 C-123.01604017 129.82156905 -117.19230961 124.3026611 -110.74609375 119.19140625 C-107.95561654 116.96458162 -105.26569166 114.64414498 -102.5625 112.3125 C-81.97079695 95.21002006 -43.30653301 64 -15 64 C-14.95875 62.88625 -14.9175 61.7725 -14.875 60.625 C-13.93750134 53.38185969 -9.85456766 47.14392144 -4.25 42.5625 C3.54772645 37.31945726 12.30940403 35.82491115 21.46875 37.43359375 C28.0628491 39.07194245 33.20166657 42.19233129 38 47 C38.49113281 48.03253906 38.98226563 49.06507812 39.48828125 50.12890625 C43.52390126 54.74194001 48.43620502 54.22774678 54.3125 54.625 C56.68042857 54.84233199 59.04764696 55.06755083 61.4140625 55.30078125 C62.55391602 55.41244629 63.69376953 55.52411133 64.86816406 55.63916016 C92.47357624 58.81976502 119.60196036 75.29521629 136.6875 96.8125 C153.95057523 119.20298411 161.46853148 145.53015507 161.3125 173.625 C161.31034485 174.32687439 161.3081897 175.02874878 161.30596924 175.75189209 C161.25040768 187.06493169 160.60945253 197.96199235 158 209 C157.80132324 209.85142578 157.60264648 210.70285156 157.39794922 211.58007812 C146.7597125 255.91801754 123.14584843 297.09012473 92.265625 330.5234375 C91.01718222 331.8881146 89.77662882 333.26071438 88.57324219 334.6652832 C83.71409495 340.33598056 78.5280929 345.65807094 73.24951172 350.93579102 C71.76106763 352.42641615 70.28082723 353.92487017 68.80078125 355.42382812 C62.52732407 361.73363979 55.97210908 367.45735205 49 373 C47.97240151 373.86333059 46.94898628 374.7317211 45.93359375 375.609375 C31.38852134 388.08308342 15.62379705 398.5192943 -1 408 C-1.70415039 408.40702148 -2.40830078 408.81404297 -3.13378906 409.23339844 C-43.63722271 432.47562852 -92.7604258 444.33974709 -138.70410156 432.4074707 C-162.11641278 425.80073119 -183.48131053 411.48258923 -198 392 C-198.88558594 390.88818359 -198.88558594 390.88818359 -199.7890625 389.75390625 C-210.68356057 375.40202181 -218.54691692 356.00313322 -220 338 C-218.8125 334.5625 -218.8125 334.5625 -217 332 C-214.8125 331.125 -214.8125 331.125 -213 331 C-213.23976562 330.02353516 -213.23976562 330.02353516 -213.484375 329.02734375 C-220.44847955 288.13960868 -200.18700458 241.76630183 -179 208 C-178.67 207.67 -178.34 207.34 -178 207 C-178.72703125 206.91363281 -179.4540625 206.82726562 -180.203125 206.73828125 C-194.91864613 204.6818815 -205.88204875 198.7707223 -216 188 C-221.53049912 195.29772019 -226.39159816 202.73440183 -230.8125 210.75 C-231.41288086 211.83490723 -232.01326172 212.91981445 -232.63183594 214.03759766 C-247.01878649 240.30427687 -258.62059096 267.6516902 -265 297 C-265.31324219 298.3919458 -265.31324219 298.3919458 -265.6328125 299.81201172 C-272.73940617 332.51696061 -271.19396842 367.69540884 -259.66308594 399.10546875 C-258.63777506 402.0349284 -257.81845998 405.00677493 -257 408 C-256.484375 407.67 -255.96875 407.34 -255.4375 407 C-252.10689226 405.63359682 -249.57353918 405.68653165 -246 406 C-243.5 407.1875 -243.5 407.1875 -241 409 C-240.38511719 409.433125 -239.77023438 409.86625 -239.13671875 410.3125 C-237.41437122 411.52746258 -235.70605986 412.76227029 -234 414 C-233.18595703 413.25943359 -233.18595703 413.25943359 -232.35546875 412.50390625 C-231.64003906 411.86324219 -230.92460937 411.22257812 -230.1875 410.5625 C-229.47980469 409.92441406 -228.77210938 409.28632813 -228.04296875 408.62890625 C-224.24991841 405.60461946 -220.70197253 405.60152775 -216 406 C-211.98404172 408.12163834 -209.66636078 409.78009563 -208 414 C-207.76953125 416.18359375 -207.76953125 416.18359375 -207.8125 418.4375 C-207.81894531 419.17871094 -207.82539063 419.91992188 -207.83203125 420.68359375 C-208.01350725 423.18627438 -208.46023542 425.55162785 -209 428 C-208.26394531 428.03738281 -207.52789062 428.07476562 -206.76953125 428.11328125 C-200.22881971 428.55393685 -196.15756432 429.16908027 -191.1875 433.625 C-189.30897434 437.38205132 -189.24320287 440.89473255 -190 445 C-192.94767502 449.59490517 -196.41972715 452.2305327 -201 455 C-199.87521792 457.85521604 -198.70809477 460.57299915 -197.3125 463.3125 C-195.76386037 467.66343992 -195.53279842 470.62590529 -197 475 C-199.02302198 477.97131353 -200.52050962 479.56418113 -204.015625 480.59375 C-209.62982517 481.4574731 -214.58612424 480.54865004 -220 479 C-220.36351562 479.83144531 -220.72703125 480.66289062 -221.1015625 481.51953125 C-221.85566406 483.14955078 -221.85566406 483.14955078 -222.625 484.8125 C-223.11226562 485.89144531 -223.59953125 486.97039062 -224.1015625 488.08203125 C-226.36926051 491.56756708 -228.12890304 492.58374501 -232 494 C-236.26496651 494.49359468 -239.30719402 493.47726634 -242.8125 491.0625 C-245.72750548 486.98149233 -246.84468416 482.83729802 -248 478 C-248.61746094 478.22816406 -249.23492187 478.45632813 -249.87109375 478.69140625 C-255.70699618 480.67223767 -261.00377634 482.08923541 -267 480 C-270.21411376 477.37623367 -271.56731033 475.9059801 -272.47265625 471.91796875 C-272.9041728 465.6001239 -270.41394602 461.15749702 -267 456 C-267.69867188 455.46890625 -268.39734375 454.9378125 -269.1171875 454.390625 C-270.02726562 453.68421875 -270.93734375 452.9778125 -271.875 452.25 C-273.23238281 451.20585938 -273.23238281 451.20585938 -274.6171875 450.140625 C-278.05442527 447.05274582 -278.89654922 445.13795854 -279.3125 440.5625 C-278.97426877 436.70666403 -278.40978135 434.99145272 -276 432 C-272.22287846 429.03955339 -269.69838536 428.8768699 -265 429 C-265.27150879 428.42781738 -265.54301758 427.85563477 -265.82275391 427.26611328 C-277.10320626 403.35422761 -286.04941457 378.99626114 -286.203125 352.20703125 C-286.21371445 350.97735626 -286.21371445 350.97735626 -286.22451782 349.72283936 C-286.44998975 315.83957556 -286.44998975 315.83957556 -283 300 C-282.80132324 299.04770508 -282.60264648 298.09541016 -282.39794922 297.11425781 C-277.29777367 273.05365434 -269.39232408 250.2698184 -259 228 C-258.57348145 227.08508789 -258.14696289 226.17017578 -257.70751953 225.22753906 C-248.98707671 206.73639308 -238.82684032 188.77923691 -226.37890625 172.5234375 C-224.65890576 169.37578788 -225.0348987 168.38293402 -226 165 C-227.15808918 148.90066189 -222.97670608 136.88366694 -213.75 123.8125 C-205.42130391 115.29451536 -194.82748714 109.11813801 -182.80664062 108.66064453 C-174.51501877 108.28763289 -170.18131543 106.41951117 -164.4375 100.3125 C-162.74123995 98.44231303 -161.0764721 96.55224511 -159.43505859 94.63378906 C-157.68001842 92.63570657 -155.782685 90.89966182 -153.75 89.1875 C-150.8403284 86.72261897 -148.00481178 84.19541122 -145.1875 81.625 C-140.4687153 77.37737989 -135.64134948 73.2998332 -130.67871094 69.33984375 C-129.48169189 68.38445682 -128.2873125 67.42575871 -127.09472656 66.46484375 C-110.66518045 53.25876678 -93.27966446 41.49466686 -75 31 C-74.32469238 30.60893066 -73.64938477 30.21786133 -72.95361328 29.81494141 C-17.60775382 -2.11293046 -17.60775382 -2.11293046 0 0 Z " fill="#D6EAFC" transform="translate(286,5)"/>
<path d="M0 0 C16.63873917 -0.75451238 32.04537774 -0.22474332 46.43359375 9.1796875 C47.20896484 9.58574219 47.20896484 9.58574219 48 10 C48.66 9.67 49.32 9.34 50 9 C54.09262054 8.53668447 56.18518118 8.36851541 59.5 10.9375 C60.325 11.948125 61.15 12.95875 62 14 C62.8353125 14.96486328 62.8353125 14.96486328 63.6875 15.94921875 C76.64949709 31.50920233 78.24119777 50.53204413 77 70 C74.85338774 90.27747027 66.56962994 109.20384607 57 127 C56.65888184 127.64743164 56.31776367 128.29486328 55.96630859 128.96191406 C45.00562352 149.69889718 30.51732728 168.19399738 14.52734375 185.28515625 C12.23206385 187.75071967 10.02121535 190.26976343 7.8125 192.8125 C-1.78351943 203.49388608 -12.68825023 213.18194274 -24 222 C-24.59828613 222.47614746 -25.19657227 222.95229492 -25.81298828 223.44287109 C-56.43916811 247.80581137 -93.6007888 270.16260111 -133.8125 270.1875 C-134.84181641 270.19974609 -135.87113281 270.21199219 -136.93164062 270.22460938 C-153.60787773 270.25625309 -169.73332678 265.15096897 -182.28125 253.81640625 C-196.33849543 238.96045369 -201.72263673 220.7048039 -201.46801758 200.59960938 C-199.99533428 160.43130263 -176.95449147 123.12164825 -152 93 C-151.56655273 92.47035645 -151.13310547 91.94071289 -150.68652344 91.39501953 C-139.58529834 77.84922414 -127.69364795 64.47903927 -114.390625 53.0546875 C-112.59628661 51.5124947 -110.81757791 49.95208625 -109.046875 48.3828125 C-96.29525759 37.14684201 -82.75101465 27.06073352 -68.25 18.1875 C-67.01805908 17.42276367 -67.01805908 17.42276367 -65.76123047 16.64257812 C-61.23319357 13.94534173 -57.41819447 11.87802643 -52 12 C-50.56720703 13.06541016 -50.56720703 13.06541016 -49.10546875 14.15234375 C-46.31107848 16.27048666 -46.31107848 16.27048666 -44.05712891 15.66455078 C-41.73939176 14.74223476 -39.53864935 13.68808113 -37.3125 12.5625 C-30.58238674 9.4384876 -24.00829641 6.89591036 -16.8125 5.0625 C-15.66551636 4.76484741 -15.66551636 4.76484741 -14.49536133 4.46118164 C-9.68136088 3.26943008 -4.93021124 2.53043043 0 2 C0 1.34 0 0.68 0 0 Z " fill="#88C7FC" transform="translate(318,119)"/>
<path d="M0 0 C3.32274404 2.45594125 4.77618008 3.9256644 5.625 8 C4.81605525 11.88293482 3.15899683 13.7672148 0 16 C-3.63582528 17.63695772 -7.39846061 18.8306987 -11.1875 20.0625 C-52.50883902 34.26954414 -91.11976901 57.84548982 -124.07421875 86.4765625 C-126.93833734 88.94681699 -129.86165224 91.32197772 -132.8125 93.6875 C-136.81692754 96.94327369 -140.48344541 100.36802446 -144.07421875 104.0703125 C-147.22394816 107.22643081 -150.60595087 110.11144755 -154 113 C-153.28714844 113.4846875 -152.57429687 113.969375 -151.83984375 114.46875 C-142.37361704 121.09383464 -136.18597233 127.67585232 -131 138 C-130.26136719 137.23816406 -129.52273437 136.47632813 -128.76171875 135.69140625 C-123.01604017 129.82156905 -117.19230961 124.3026611 -110.74609375 119.19140625 C-107.95561654 116.96458162 -105.26569166 114.64414498 -102.5625 112.3125 C-81.97079695 95.21002006 -43.30653301 64 -15 64 C-14.95875 62.88625 -14.9175 61.7725 -14.875 60.625 C-13.93750134 53.38185969 -9.85456766 47.14392144 -4.25 42.5625 C3.54772645 37.31945726 12.30940403 35.82491115 21.46875 37.43359375 C28.0628491 39.07194245 33.20166657 42.19233129 38 47 C38.49113281 48.03253906 38.98226563 49.06507812 39.48828125 50.12890625 C43.52390126 54.74194001 48.43620502 54.22774678 54.3125 54.625 C56.68042857 54.84233199 59.04764696 55.06755083 61.4140625 55.30078125 C62.55391602 55.41244629 63.69376953 55.52411133 64.86816406 55.63916016 C92.47357624 58.81976502 119.60196036 75.29521629 136.6875 96.8125 C153.95057523 119.20298411 161.46853148 145.53015507 161.3125 173.625 C161.31034485 174.32687439 161.3081897 175.02874878 161.30596924 175.75189209 C161.25040768 187.06493169 160.60945253 197.96199235 158 209 C157.80132324 209.85142578 157.60264648 210.70285156 157.39794922 211.58007812 C146.7597125 255.91801754 123.14584843 297.09012473 92.265625 330.5234375 C91.01718222 331.8881146 89.77662882 333.26071438 88.57324219 334.6652832 C83.71409495 340.33598056 78.5280929 345.65807094 73.24951172 350.93579102 C71.76106763 352.42641615 70.28082723 353.92487017 68.80078125 355.42382812 C62.52732407 361.73363979 55.97210908 367.45735205 49 373 C47.97240151 373.86333059 46.94898628 374.7317211 45.93359375 375.609375 C31.38852134 388.08308342 15.62379705 398.5192943 -1 408 C-1.70415039 408.40702148 -2.40830078 408.81404297 -3.13378906 409.23339844 C-43.63722271 432.47562852 -92.7604258 444.33974709 -138.70410156 432.4074707 C-162.11641278 425.80073119 -183.48131053 411.48258923 -198 392 C-198.88558594 390.88818359 -198.88558594 390.88818359 -199.7890625 389.75390625 C-210.70821502 375.36954323 -218.48831988 356.02678544 -220 338 C-219 334.5625 -219 334.5625 -217 332 C-213.59639841 331.00986136 -211.21393232 330.73023726 -207.75 331.5 C-203.65295721 335.01175096 -202.81631305 340.5935326 -201.625 345.625 C-195.7357436 370.00166437 -181.5482105 391.7511703 -160 405 C-158.93523437 405.65871094 -157.87046875 406.31742187 -156.7734375 406.99609375 C-139.82454756 416.96644506 -121.25231615 420.24184632 -101.8125 420.3125 C-101.10090729 420.31545074 -100.38931458 420.31840149 -99.65615845 420.32144165 C-87.7162948 420.33268904 -76.53562016 419.15274901 -65 416 C-64.13777832 415.77602539 -63.27555664 415.55205078 -62.38720703 415.32128906 C-7.22321926 400.7753194 46.81613406 362.53753598 81.91796875 317.63671875 C83.81554464 315.23359732 85.79697425 312.9306091 87.81860352 310.63183594 C116.48931566 277.7630402 138.04667634 235.33422425 144 192 C144.15033691 190.9780957 144.15033691 190.9780957 144.30371094 189.93554688 C148.14096684 162.32369126 142.69162078 132.67577915 126 110 C122.60970427 105.71772011 118.87831856 101.83953538 115 98 C114.22140625 97.19949219 113.4428125 96.39898437 112.640625 95.57421875 C94.23641242 77.69495854 68.83482881 71.58636572 44 70 C43.9175 70.99 43.835 71.98 43.75 73 C42.560655 80.97182593 38.23819772 87.04465746 32 92 C23.88476424 96.92284522 16.4534908 97.88057141 7 97 C0.15085047 94.94156288 -5.71849582 90.74110787 -10 85 C-10.71849981 83.3550136 -11.39772535 81.69100191 -12 80 C-39.80820686 88.55637134 -65.32652017 104.01307085 -88 122 C-88.969375 122.76828125 -89.93875 123.5365625 -90.9375 124.328125 C-93.65188234 126.52172468 -96.32953872 128.7531813 -99 131 C-99.52239258 131.4321582 -100.04478516 131.86431641 -100.58300781 132.30957031 C-104.14215942 135.25443103 -107.64619069 138.25227302 -111.1015625 141.31835938 C-112.41190899 142.47906754 -113.73015173 143.63090106 -115.0546875 144.77539062 C-125.19539418 153.22591446 -125.19539418 153.22591446 -129.5625 165.1875 C-129.6140625 166.33089844 -129.665625 167.47429687 -129.71875 168.65234375 C-130.66266726 179.88758115 -139.22006662 188.83538239 -147.23828125 196 C-158.20618107 204.55311851 -172.34794404 207.61411048 -186 206 C-198.30868355 203.35503679 -207.56356955 197.12283823 -216 188 C-221.53049912 195.29772019 -226.39159816 202.73440183 -230.8125 210.75 C-231.41288086 211.83490723 -232.01326172 212.91981445 -232.63183594 214.03759766 C-247.01878649 240.30427687 -258.62059096 267.6516902 -265 297 C-265.31324219 298.3919458 -265.31324219 298.3919458 -265.6328125 299.81201172 C-272.73940617 332.51696061 -271.19396842 367.69540884 -259.66308594 399.10546875 C-258.63777506 402.0349284 -257.81845998 405.00677493 -257 408 C-256.484375 407.67 -255.96875 407.34 -255.4375 407 C-252.10689226 405.63359682 -249.57353918 405.68653165 -246 406 C-243.5 407.1875 -243.5 407.1875 -241 409 C-240.38511719 409.433125 -239.77023438 409.86625 -239.13671875 410.3125 C-237.41437122 411.52746258 -235.70605986 412.76227029 -234 414 C-233.18595703 413.25943359 -233.18595703 413.25943359 -232.35546875 412.50390625 C-231.64003906 411.86324219 -230.92460937 411.22257812 -230.1875 410.5625 C-229.47980469 409.92441406 -228.77210938 409.28632813 -228.04296875 408.62890625 C-224.24991841 405.60461946 -220.70197253 405.60152775 -216 406 C-211.98404172 408.12163834 -209.66636078 409.78009563 -208 414 C-207.76953125 416.18359375 -207.76953125 416.18359375 -207.8125 418.4375 C-207.81894531 419.17871094 -207.82539063 419.91992188 -207.83203125 420.68359375 C-208.01350725 423.18627438 -208.46023542 425.55162785 -209 428 C-208.26394531 428.03738281 -207.52789062 428.07476562 -206.76953125 428.11328125 C-200.22881971 428.55393685 -196.15756432 429.16908027 -191.1875 433.625 C-189.30897434 437.38205132 -189.24320287 440.89473255 -190 445 C-192.94767502 449.59490517 -196.41972715 452.2305327 -201 455 C-199.87521792 457.85521604 -198.70809477 460.57299915 -197.3125 463.3125 C-195.76386037 467.66343992 -195.53279842 470.62590529 -197 475 C-199.02302198 477.97131353 -200.52050962 479.56418113 -204.015625 480.59375 C-209.62982517 481.4574731 -214.58612424 480.54865004 -220 479 C-220.36351562 479.83144531 -220.72703125 480.66289062 -221.1015625 481.51953125 C-221.85566406 483.14955078 -221.85566406 483.14955078 -222.625 484.8125 C-223.11226562 485.89144531 -223.59953125 486.97039062 -224.1015625 488.08203125 C-226.36926051 491.56756708 -228.12890304 492.58374501 -232 494 C-236.26496651 494.49359468 -239.30719402 493.47726634 -242.8125 491.0625 C-245.72750548 486.98149233 -246.84468416 482.83729802 -248 478 C-248.61746094 478.22816406 -249.23492187 478.45632813 -249.87109375 478.69140625 C-255.70699618 480.67223767 -261.00377634 482.08923541 -267 480 C-270.21411376 477.37623367 -271.56731033 475.9059801 -272.47265625 471.91796875 C-272.9041728 465.6001239 -270.41394602 461.15749702 -267 456 C-267.69867188 455.46890625 -268.39734375 454.9378125 -269.1171875 454.390625 C-270.02726562 453.68421875 -270.93734375 452.9778125 -271.875 452.25 C-273.23238281 451.20585938 -273.23238281 451.20585938 -274.6171875 450.140625 C-278.05442527 447.05274582 -278.89654922 445.13795854 -279.3125 440.5625 C-278.97426877 436.70666403 -278.40978135 434.99145272 -276 432 C-272.22287846 429.03955339 -269.69838536 428.8768699 -265 429 C-265.27150879 428.42781738 -265.54301758 427.85563477 -265.82275391 427.26611328 C-277.10320626 403.35422761 -286.04941457 378.99626114 -286.203125 352.20703125 C-286.21371445 350.97735626 -286.21371445 350.97735626 -286.22451782 349.72283936 C-286.44998975 315.83957556 -286.44998975 315.83957556 -283 300 C-282.80132324 299.04770508 -282.60264648 298.09541016 -282.39794922 297.11425781 C-277.29777367 273.05365434 -269.39232408 250.2698184 -259 228 C-258.57348145 227.08508789 -258.14696289 226.17017578 -257.70751953 225.22753906 C-248.98707671 206.73639308 -238.82684032 188.77923691 -226.37890625 172.5234375 C-224.65890576 169.37578788 -225.0348987 168.38293402 -226 165 C-227.15808918 148.90066189 -222.97670608 136.88366694 -213.75 123.8125 C-205.42130391 115.29451536 -194.82748714 109.11813801 -182.80664062 108.66064453 C-174.51501877 108.28763289 -170.18131543 106.41951117 -164.4375 100.3125 C-162.74123995 98.44231303 -161.0764721 96.55224511 -159.43505859 94.63378906 C-157.68001842 92.63570657 -155.782685 90.89966182 -153.75 89.1875 C-150.8403284 86.72261897 -148.00481178 84.19541122 -145.1875 81.625 C-140.4687153 77.37737989 -135.64134948 73.2998332 -130.67871094 69.33984375 C-129.48169189 68.38445682 -128.2873125 67.42575871 -127.09472656 66.46484375 C-110.66518045 53.25876678 -93.27966446 41.49466686 -75 31 C-74.32469238 30.60893066 -73.64938477 30.21786133 -72.95361328 29.81494141 C-17.60775382 -2.11293046 -17.60775382 -2.11293046 0 0 Z " fill="#010101" transform="translate(286,5)"/>
<path d="M0 0 C7.55682862 6.08491622 12.84472202 13.39899736 14.34130859 23.14526367 C14.51680969 25.79965488 14.55230479 28.40667617 14.5078125 31.06640625 C14.49540527 32.02345459 14.48299805 32.98050293 14.47021484 33.96655273 C13.45635805 66.60786212 -8.39174567 97.51491331 -31.0546875 119.56640625 C-31.8590625 120.37078125 -32.6634375 121.17515625 -33.4921875 122.00390625 C-34.3378125 122.84953125 -35.1834375 123.69515625 -36.0546875 124.56640625 C-36.580625 125.12714844 -37.1065625 125.68789063 -37.6484375 126.265625 C-55.50382558 144.91542654 -79.50292862 158.89009683 -104.0546875 166.56640625 C-105.18003906 166.93572266 -105.18003906 166.93572266 -106.328125 167.3125 C-111.39176181 168.71906578 -116.57843181 168.85985168 -121.8046875 169.00390625 C-122.53856689 169.03846924 -123.27244629 169.07303223 -124.02856445 169.10864258 C-128.05800423 169.13950716 -129.84638919 168.72989462 -133.05078125 166.21484375 C-135.0546875 163.56640625 -135.0546875 163.56640625 -135.3671875 160.75390625 C-135.2640625 160.03203125 -135.1609375 159.31015625 -135.0546875 158.56640625 C-136.3540625 158.22609375 -136.3540625 158.22609375 -137.6796875 157.87890625 C-142.57000034 155.97711792 -146.09381632 153.53182457 -148.4296875 148.75390625 C-148.6359375 148.03203125 -148.8421875 147.31015625 -149.0546875 146.56640625 C-150.1271875 146.50453125 -151.1996875 146.44265625 -152.3046875 146.37890625 C-156.0546875 145.56640625 -156.0546875 145.56640625 -158.2578125 143.6328125 C-160.80023388 139.29411515 -160.65593205 135.63558873 -160.5546875 130.69140625 C-160.54332764 129.75756104 -160.53196777 128.82371582 -160.52026367 127.86157227 C-160.29156932 119.6080427 -158.83647013 112.3718687 -156.0546875 104.56640625 C-155.7040625 103.58027344 -155.3534375 102.59414063 -154.9921875 101.578125 C-144.57163226 74.8392697 -126.09115755 49.88446661 -104.0546875 31.56640625 C-103.11238281 30.73625 -102.17007813 29.90609375 -101.19921875 29.05078125 C-85.36143168 15.1545275 -66.41698792 2.56091525 -46.0546875 -3.43359375 C-44.72050781 -3.87638672 -44.72050781 -3.87638672 -43.359375 -4.328125 C-29.25841027 -8.53536107 -12.48938944 -8.46952523 0 0 Z " fill="#968DC9" transform="translate(329.0546875,169.43359375)"/>
<path d="M0 0 C2.5 1.9375 2.5 1.9375 5 5 C5.8353125 5.96486328 5.8353125 5.96486328 6.6875 6.94921875 C19.64949709 22.50920233 21.24119777 41.53204413 20 61 C17.85338774 81.27747027 9.56962994 100.20384607 0 118 C-0.34111816 118.64743164 -0.68223633 119.29486328 -1.03369141 119.96191406 C-11.99437648 140.69889718 -26.48267272 159.19399738 -42.47265625 176.28515625 C-44.76793615 178.75071967 -46.97878465 181.26976343 -49.1875 183.8125 C-58.78351943 194.49388608 -69.68825023 204.18194274 -81 213 C-81.59828613 213.47614746 -82.19657227 213.95229492 -82.81298828 214.44287109 C-113.43916811 238.80581137 -150.6007888 261.16260111 -190.8125 261.1875 C-191.84181641 261.19974609 -192.87113281 261.21199219 -193.93164062 261.22460938 C-210.60787773 261.25625309 -226.73332678 256.15096897 -239.28125 244.81640625 C-253.33849543 229.96045369 -258.72263673 211.7048039 -258.46801758 191.59960938 C-256.99533428 151.43130263 -233.95449147 114.12164825 -209 84 C-208.56655273 83.47035645 -208.13310547 82.94071289 -207.68652344 82.39501953 C-196.58529834 68.84922414 -184.69364795 55.47903927 -171.390625 44.0546875 C-169.59628661 42.5124947 -167.81757791 40.95208625 -166.046875 39.3828125 C-153.29525759 28.14684201 -139.75101465 18.06073352 -125.25 9.1875 C-124.42870605 8.67767578 -123.60741211 8.16785156 -122.76123047 7.64257812 C-118.1137342 4.87418282 -114.45302042 3.1371829 -109 3 C-106.0625 4.5625 -106.0625 4.5625 -104 7 C-103.375 9.9375 -103.375 9.9375 -104 13 C-107.93811298 17.64356235 -112.70463094 20.49537561 -117.875 23.625 C-134.69228861 34.03085878 -149.94694216 46.05365955 -164.41455078 59.53222656 C-166.06680046 61.06184237 -167.73279377 62.57523422 -169.40234375 64.0859375 C-174.54173415 68.74877957 -179.6335913 73.37422158 -184.0859375 78.71484375 C-185.64384117 80.57478997 -187.23141645 82.38641484 -188.8515625 84.19140625 C-217.41249082 116.1907883 -244.17916002 158.01004707 -242.2265625 202.43164062 C-241.03152149 215.97887271 -234.7492742 227.48967063 -224.4296875 236.2109375 C-209.87836197 246.92557913 -192.27716401 246.67400511 -174.98046875 244.453125 C-143.70212173 239.30038171 -114.7984882 220.04371137 -90.67382812 200.36523438 C-89.59327843 199.48389921 -88.50889329 198.60723604 -87.41992188 197.73632812 C-78.64543138 190.69696841 -70.65444515 182.86264506 -62.6875 174.9375 C-62.17544006 174.43070709 -61.66338013 173.92391418 -61.13580322 173.40176392 C-54.28655452 166.60703564 -47.98364286 159.58482486 -42 152 C-41.02327697 150.79594807 -40.04558225 149.59268294 -39.06640625 148.390625 C-14.45688633 117.69785296 7.22195804 79.50806748 4 39 C2.25373702 29.10781709 -2.09887266 20.1787855 -8.875 12.75 C-11 10 -11 10 -11.5625 6.875 C-11 4 -11 4 -9.4375 1.625 C-6.02544071 -0.64970619 -4.02388226 -0.63534983 0 0 Z " fill="#020304" transform="translate(375,128)"/>
<path d="M0 0 C25.78492588 0.80577893 48.32568951 10.13897606 67 28 C67.67675781 28.60199219 68.35351562 29.20398438 69.05078125 29.82421875 C87.82360752 47.16745103 96.00399404 73.64549089 97.26171875 98.4921875 C97.89194756 117.99516004 94.70921435 137.69314668 88 156 C87.59394531 157.20269531 87.18789063 158.40539062 86.76953125 159.64453125 C75.98362048 190.88423664 58.21743668 219.43445364 36.51611328 244.21289062 C35.35469609 245.58190412 34.22301154 246.9761906 33.10498047 248.38085938 C27.53958313 255.36182805 21.57256492 261.737917 15.24414062 268.01660156 C13.62653713 269.62347307 12.01993087 271.24078494 10.4140625 272.859375 C3.91912717 279.36255846 -2.79556785 285.28248135 -10 291 C-11.03956577 291.87476743 -12.07469516 292.75489171 -13.1015625 293.64453125 C-26.65446857 305.28828182 -41.56054018 315.05341815 -57 324 C-57.68497559 324.39815918 -58.36995117 324.79631836 -59.07568359 325.20654297 C-74.96878321 334.3249078 -92.32252504 341.20112868 -110 346 C-110.95132813 346.27328125 -111.90265625 346.5465625 -112.8828125 346.828125 C-121.15841282 349.07908829 -129.49477692 350.08255842 -138 351 C-135.4399787 349.29331913 -133.5195942 348.35731752 -130.67578125 347.3359375 C-129.82024658 347.02285645 -128.96471191 346.70977539 -128.08325195 346.38720703 C-127.16890381 346.05317871 -126.25455566 345.71915039 -125.3125 345.375 C-115.84476616 341.83338118 -106.89846078 337.77820379 -98 333 C-97.28247559 332.62117676 -96.56495117 332.24235352 -95.82568359 331.85205078 C-79.79421892 323.36521381 -65.18911515 313.26674558 -51 302 C-49.60007812 300.89205078 -49.60007812 300.89205078 -48.171875 299.76171875 C-41.69975449 294.55628468 -35.56909171 289.02531572 -29.49072266 283.37304688 C-27.08356737 281.15590942 -24.6297587 278.99082103 -22.1875 276.8125 C-18.5016772 273.46270663 -15.12596569 270.04947942 -11.92578125 266.23828125 C-9.94613168 263.93739037 -7.88164501 261.72935015 -5.79882812 259.52197266 C0.94323092 252.35268982 7.08275943 244.85880369 13 237 C13.49580566 236.34999023 13.99161133 235.69998047 14.50244141 235.03027344 C46.14414202 193.38017619 71.91070038 140.99212495 64.68359375 87.39453125 C60.63707463 60.05497336 47.28735883 32.07908378 25 15 C17.11813301 9.3589845 9.00042879 4.65527618 0 1 C0 0.67 0 0.34 0 0 Z " fill="#C2E0FD" transform="translate(335,75)"/>
<path d="M0 0 C3.47195248 0.11527967 5.49828003 0.31533127 8.5 2.19140625 C10.59792725 5.60053802 10.36075012 7.64462158 10 11.62890625 C8.91381629 14.64768417 7.4295436 17.38991203 5.875 20.19140625 C5.43196533 21.00859131 4.98893066 21.82577637 4.5324707 22.66772461 C-12.76739739 54.02059078 -34.90075567 82.26530339 -59 108.62890625 C-59.44279297 109.11681641 -59.88558594 109.60472656 -60.34179688 110.10742188 C-69.73043138 120.4490865 -79.26413455 130.79641904 -89.93359375 139.83984375 C-92.04257418 141.66576632 -94.07830167 143.56016945 -96.11352539 145.4675293 C-102.48269137 151.4148962 -109.15798434 156.82645819 -116.06787109 162.12939453 C-118.09108584 163.69959733 -120.08775819 165.2994786 -122.08203125 166.90625 C-138.93761116 180.40260161 -157.1360514 192.13349211 -176 202.62890625 C-176.78487793 203.06654297 -177.56975586 203.50417969 -178.37841797 203.95507812 C-222.76531183 228.4743809 -286.62789414 252.23596545 -338 238.62890625 C-341.33414143 236.66995784 -341.86781221 236.07504005 -343 232.25390625 C-343 228.62890625 -343 228.62890625 -341.5 225.75390625 C-338.21546485 222.96205137 -336.29452279 222.76971028 -332 222.62890625 C-330.69289063 222.78746094 -329.38578125 222.94601562 -328.0390625 223.109375 C-255.53330039 231.56037774 -183.3280749 193.55279768 -128.29296875 150.078125 C-118.32711195 142.12099385 -108.82699792 133.66768316 -99.48095703 124.99658203 C-97.96196449 123.59378015 -96.43369118 122.20179828 -94.90234375 120.8125 C-86.85592872 113.50678565 -79.00502165 106.10136241 -71.9296875 97.8359375 C-70.04751332 95.6832484 -68.10745322 93.59316666 -66.15258789 91.5065918 C-60.20938991 85.13924914 -54.79994262 78.46765724 -49.49951172 71.56103516 C-47.92930892 69.53782041 -46.32942765 67.54114806 -44.72265625 65.546875 C-31.55528951 49.10638085 -20.31955979 31.5463732 -10.21069336 13.07739258 C-3.65974637 1.15081868 -3.65974637 1.15081868 0 0 Z " fill="#000000" transform="translate(470,266.37109375)"/>
<path d="M0 0 C7.55682862 6.08491622 12.84472202 13.39899736 14.34130859 23.14526367 C14.51680969 25.79965488 14.55230479 28.40667617 14.5078125 31.06640625 C14.49540527 32.02345459 14.48299805 32.98050293 14.47021484 33.96655273 C13.45635805 66.60786212 -8.39174567 97.51491331 -31.0546875 119.56640625 C-31.8590625 120.37078125 -32.6634375 121.17515625 -33.4921875 122.00390625 C-34.3378125 122.84953125 -35.1834375 123.69515625 -36.0546875 124.56640625 C-36.580625 125.12714844 -37.1065625 125.68789063 -37.6484375 126.265625 C-55.50382558 144.91542654 -79.50292862 158.89009683 -104.0546875 166.56640625 C-105.18003906 166.93572266 -105.18003906 166.93572266 -106.328125 167.3125 C-111.42195899 168.72745389 -116.61111556 168.82828344 -121.8671875 168.94140625 C-122.6094458 168.96759033 -123.3517041 168.99377441 -124.11645508 169.02075195 C-127.60346925 169.03146658 -129.66608379 168.84319474 -132.5390625 166.796875 C-135.02450993 163.13916757 -134.53886917 160.92404129 -134.0546875 156.56640625 C-132.54654088 154.53966278 -131.64148604 153.69952504 -129.16381836 153.13745117 C-128.45620361 153.10756104 -127.74858887 153.0776709 -127.01953125 153.046875 C-125.81937378 152.97327759 -125.81937378 152.97327759 -124.5949707 152.89819336 C-123.73605225 152.85057861 -122.87713379 152.80296387 -121.9921875 152.75390625 C-86.43044978 149.90421239 -54.83869017 124.74266122 -32.28662109 98.50976562 C-20.48289354 84.20993333 -11.40133098 68.9767931 -5.0546875 51.56640625 C-4.51328125 50.30570313 -4.51328125 50.30570313 -3.9609375 49.01953125 C-0.92281406 40.79564539 -0.44460023 28.2933218 -3.1796875 19.87890625 C-6.1058481 14.70935586 -9.10337639 12.27291544 -14.6796875 10.25390625 C-31.3210526 7.01371607 -46.5463237 13.01834491 -61.0546875 20.56640625 C-61.64636719 20.870625 -62.23804688 21.17484375 -62.84765625 21.48828125 C-76.38285205 28.53972984 -88.01597175 38.08786414 -99.0546875 48.56640625 C-99.58030273 49.05947266 -100.10591797 49.55253906 -100.64746094 50.06054688 C-118.52705415 66.93039694 -132.11373057 86.65520412 -141.0546875 109.56640625 C-141.4053125 110.46230469 -141.7559375 111.35820312 -142.1171875 112.28125 C-144.47211958 119.44794233 -144.47669782 126.82317003 -144.50146484 134.30737305 C-144.62459725 140.95225587 -144.62459725 140.95225587 -146.87109375 144.16015625 C-150.12656243 146.25670137 -152.27511482 146.17383757 -156.0546875 145.56640625 C-158.50028382 143.42214233 -159.85704754 141.67559716 -160.43554688 138.42895508 C-160.59683224 135.83660697 -160.60786456 133.28825824 -160.5546875 130.69140625 C-160.54332764 129.75756104 -160.53196777 128.82371582 -160.52026367 127.86157227 C-160.29156932 119.6080427 -158.83647013 112.3718687 -156.0546875 104.56640625 C-155.7040625 103.58027344 -155.3534375 102.59414063 -154.9921875 101.578125 C-144.57163226 74.8392697 -126.09115755 49.88446661 -104.0546875 31.56640625 C-103.11238281 30.73625 -102.17007813 29.90609375 -101.19921875 29.05078125 C-85.36143168 15.1545275 -66.41698792 2.56091525 -46.0546875 -3.43359375 C-44.72050781 -3.87638672 -44.72050781 -3.87638672 -43.359375 -4.328125 C-29.25841027 -8.53536107 -12.48938944 -8.46952523 0 0 Z " fill="#020203" transform="translate(329.0546875,169.43359375)"/>
<path d="M0 0 C18.5786405 4.27122509 18.5786405 4.27122509 22.66845703 9.58105469 C22.87854538 11.82944698 22.65701081 13.88592691 22.43798828 16.13183594 C22.83825546 20.38552274 25.83408239 22.86120996 28.56298828 25.97167969 C39.19324516 39.14609824 38.87726896 56.54080912 37.27392578 72.51074219 C32.85549435 98.10913845 19.77283586 122.73249189 4.66845703 143.58105469 C3.90791016 144.63421875 3.14736328 145.68738281 2.36376953 146.77246094 C-9.21398514 162.45651268 -22.19312363 176.51156505 -35.89404297 190.33105469 C-36.75610352 191.20616699 -37.61816406 192.0812793 -38.50634766 192.98291016 C-44.4661056 198.9505663 -50.71552116 204.35514295 -57.33154297 209.58105469 C-58.39804077 210.43642822 -58.39804077 210.43642822 -59.48608398 211.30908203 C-77.68750276 225.83684064 -97.27971907 238.26686294 -118.89404297 247.01855469 C-119.7395874 247.36112305 -120.58513184 247.70369141 -121.45629883 248.05664062 C-125.7418973 249.73814131 -129.72296926 251.05073259 -134.33154297 251.58105469 C-134.33154297 250.92105469 -134.33154297 250.26105469 -134.33154297 249.58105469 C-133.40857422 249.14277344 -132.48560547 248.70449219 -131.53466797 248.25292969 C-113.49121662 239.54254108 -96.86954403 229.2379686 -81.33154297 216.58105469 C-80.73760742 216.09749512 -80.14367187 215.61393555 -79.53173828 215.11572266 C-63.42794406 201.9087866 -47.33407091 187.63428981 -34.42529297 171.23339844 C-32.19482365 168.40785988 -29.86227351 165.68858777 -27.51904297 162.95605469 C-7.7997448 139.23795147 7.06540781 112.21141539 15.66845703 82.58105469 C15.97759033 81.5394519 15.97759033 81.5394519 16.29296875 80.47680664 C18.15955122 73.33267455 18.03618442 66.11025472 18.04345703 58.76855469 C18.06794922 57.47884766 18.09244141 56.18914062 18.11767578 54.86035156 C18.16201121 40.25182895 13.52491094 26.62632772 3.41845703 15.76855469 C-4.09353821 8.89373762 -12.67468897 4.58831483 -22.33154297 1.58105469 C-16.38990005 -2.38004059 -6.87964609 -1.23617515 0 0 Z " fill="#5FB5FC" transform="translate(342.33154296875,119.4189453125)"/>
<path d="M0 0 C5.67175903 1.97940583 9.56067638 7.3281212 13.328125 11.8125 C13.7809082 12.34794434 14.23369141 12.88338867 14.70019531 13.43505859 C35.96407939 39.16788442 48.23004407 74.09071962 48.56640625 107.4296875 C48.5762001 108.23584503 48.58599396 109.04200256 48.59608459 109.87258911 C48.77621873 128.57134223 48.32265651 146.46319087 44.328125 164.8125 C44.11381836 165.82119141 43.89951172 166.82988281 43.67871094 167.86914062 C41.21374529 179.20008897 38.04880004 190.20732391 34.140625 201.125 C33.80772461 202.05666992 33.47482422 202.98833984 33.13183594 203.94824219 C30.42138985 211.20787919 30.42138985 211.20787919 27.328125 213.8125 C23.85402063 215.12702598 22.57389758 214.91175431 19.078125 213.5 C16.328125 211.8125 16.328125 211.8125 15.328125 209.8125 C14.68653718 203.26657024 16.73684203 198.09852021 18.953125 192 C22.02370339 183.17601939 24.60932403 174.35636184 26.703125 165.25 C27.06011475 163.7199231 27.06011475 163.7199231 27.42431641 162.15893555 C30.61317406 147.85505819 31.73925705 133.9120376 31.703125 119.3125 C31.70258118 118.48133667 31.70203735 117.65017334 31.70147705 116.79382324 C31.59222051 80.35108637 20.97469699 44.53595573 -4.73046875 17.66015625 C-9.52035615 12.63896644 -9.52035615 12.63896644 -10.359375 8.0625 C-9.671875 4.8125 -9.671875 4.8125 -8.171875 2.375 C-5.43266147 0.66299155 -3.26654434 -0.193573 0 0 Z " fill="#000000" transform="translate(463.671875,36.1875)"/>
<path d="M0 0 C4.2070271 2.87762842 7.24535668 5.77529535 10.00390625 10.0546875 C10.43316406 10.68503906 10.86242187 11.31539062 11.3046875 11.96484375 C15.73130772 19.85974373 15.17593246 30.42163654 13.37890625 39.05859375 C9.88959113 49.01248821 2.67917665 55.25026272 -6.48046875 59.9609375 C-14.45214977 63.42688577 -23.12231658 63.13056534 -31.18359375 60.0546875 C-40.39769413 55.73068484 -46.7141437 49.78877386 -50.96484375 40.47265625 C-53.4553872 32.21801413 -53.38724139 22.09724035 -50.09375 14.0703125 C-45.48085966 5.5996669 -39.18283121 -0.46717566 -30.1875 -4.0703125 C-19.22026729 -7.07724044 -9.6751331 -5.48147472 0 0 Z " fill="#B9EA6B" transform="translate(127.99609375,133.9453125)"/>
<path d="M0 0 C6.74789241 5.54194377 11.06305876 11.94390175 12.015625 20.7265625 C12.32576116 31.78070136 10.21946078 39.19946153 2.6875 47.33203125 C-3.78850961 52.96174415 -11.6177732 55.49636962 -20.13671875 55.3359375 C-28.02218894 54.59280418 -34.74156963 51.71007474 -40.375 46.125 C-47.4041679 37.40883181 -49.42198098 29.24917289 -48.375 18.125 C-46.29645402 9.59823753 -41.74247592 3.19762102 -34.5 -1.6875 C-23.52533965 -8.03026948 -10.31317566 -7.43775494 0 0 Z " fill="#000000" transform="translate(456.375,407.875)"/>
<path d="M0 0 C7.9935057 4.45245738 13.96461851 11.33591949 16.6953125 20.109375 C18.48447194 29.42717564 16.76116692 37.4269809 11.6875 45.35546875 C6.37764305 52.19726487 -0.85020291 56.31978618 -9.375 57.7421875 C-19.01595778 58.21091915 -26.69229618 55.57990068 -34.0703125 49.3359375 C-39.89111609 43.25560763 -43.04244733 36.07392145 -43.41015625 27.6640625 C-43.000741 18.58016158 -39.42791461 11.64662816 -33.16015625 5.1484375 C-23.9607809 -2.96490048 -11.4541139 -4.5645817 0 0 Z " fill="#030203" transform="translate(268.91015625,222.8359375)"/>
<path d="M0 0 C17.36778295 -0.80572189 17.36778295 -0.80572189 23.8828125 4.546875 C29.1413782 10.28811098 30.33771189 16.20020957 30.25 23.875 C30.26160156 24.87853516 30.26160156 24.87853516 30.2734375 25.90234375 C30.16504525 54.03013257 8.48459744 80.86084882 -10 100 C-10.91960193 100.9827632 -11.83886937 101.9658395 -12.7578125 102.94921875 C-30.28589521 121.39792574 -54.62922249 138.834692 -80 144 C-80.99 143.67 -81.98 143.34 -83 143 C-81.61941406 142.30777344 -81.61941406 142.30777344 -80.2109375 141.6015625 C-63.79639308 133.20845701 -49.70220997 122.17605812 -36.0625 109.8125 C-35.51843506 109.32539551 -34.97437012 108.83829102 -34.41381836 108.33642578 C-30.99449951 105.18841376 -28.51040346 101.94571139 -26 98 C-25.21625 97.236875 -24.4325 96.47375 -23.625 95.6875 C-19.69263948 91.66151185 -16.31343619 86.94355066 -14.01171875 81.78515625 C-13 80 -13 80 -10 79 C-8.4560015 76.81566104 -7.0884426 74.68084315 -5.75 72.375 C-5.35594971 71.7042041 -4.96189941 71.0334082 -4.5559082 70.34228516 C5.20020501 53.44798525 14.13809443 34.07492558 10.46875 14.109375 C9.14903677 9.31824219 7.63971531 5.52942091 4 2 C2.68199772 1.30351439 1.35035349 0.63148055 0 0 Z " fill="#8177BF" transform="translate(298,178)"/>
<path d="M0 0 C9.75267037 -1.25391476 16.9899923 1.82399994 25 7 C27.8725811 9.40517807 29.97419436 11.8573279 32 15 C32.42925781 15.63035156 32.85851562 16.26070312 33.30078125 16.91015625 C37.72740147 24.80505623 37.17202621 35.36694904 35.375 44.00390625 C31.88568488 53.95780071 24.6752704 60.19557522 15.515625 64.90625 C11.10284524 66.82484989 7.57094737 67.1149016 2.75 67.0625 C1.67234375 67.05347656 0.5946875 67.04445313 -0.515625 67.03515625 C-1.74539062 67.01775391 -1.74539062 67.01775391 -3 67 C-1.515 66.01 -1.515 66.01 0 65 C7.55820751 59.62527466 12.17900885 51.77148425 14.52734375 42.828125 C16.36888302 31.80932803 15.64846063 21.31018191 9.57421875 11.7578125 C8.11948722 9.76554451 6.59931861 7.87746098 5 6 C4.50628906 5.39800781 4.01257813 4.79601562 3.50390625 4.17578125 C2.34937795 2.77268595 1.1767991 1.38446953 0 0 Z " fill="#8BDD2A" transform="translate(106,129)"/>
<path d="M0 0 C2.4375 1.4375 2.4375 1.4375 4 4 C4.31821008 7.03082057 4.23343667 9.96532334 4 13 C5.2375 12.95875 6.475 12.9175 7.75 12.875 C11.00644202 12.88650686 13.33396004 12.94920003 16 15 C17.88886253 17.51848338 18.00715839 18.82819868 17.875 22 C16.82229888 25.60926099 16.16581466 26.94222047 13 29 C9.96968583 29.32393014 7.03458821 29.23342986 4 29 C4.04640625 29.60328125 4.0928125 30.2065625 4.140625 30.828125 C4.43124532 37.26328924 4.43124532 37.26328924 2.5 40.5625 C-1.26364476 42.72659573 -3.68055941 42.47993784 -8 42 C-10.67431489 40.18836733 -10.95920359 39.12238923 -12 36 C-12.03954234 33.66700175 -12.04401732 31.33291811 -12 29 C-13.216875 29.103125 -14.43375 29.20625 -15.6875 29.3125 C-19.22393408 29.30621859 -19.93853572 29.04353719 -23 26.875 C-25 24 -25 24 -25.625 21 C-24.762119 16.85817119 -23.44150865 15.43773529 -20 13 C-17.19242993 12.59002212 -14.86006586 12.75762154 -12 13 C-12.061875 11.948125 -12.12375 10.89625 -12.1875 9.8125 C-11.9909572 5.81612976 -11.39429484 4.13100094 -9 1 C-5.90826248 -0.54586876 -3.40570448 -0.29359521 0 0 Z " fill="#000000" transform="translate(63,20)"/>
<path d="M0 0 C1.010625 0.845625 2.02125 1.69125 3.0625 2.5625 C6.07652752 4.72061707 6.84127541 5 10.75 5 C13.8910708 4.03351668 14.97653473 3.44945796 17 1 C17.66 1 18.32 1 19 1 C19.10957031 1.69867188 19.21914063 2.39734375 19.33203125 3.1171875 C19.49058594 4.02726562 19.64914063 4.93734375 19.8125 5.875 C20.03873047 7.23238281 20.03873047 7.23238281 20.26953125 8.6171875 C20.83051301 11.34412478 20.83051301 11.34412478 24 13 C26.32387947 13.39387788 28.65793749 13.73486085 31 14 C30 17 30 17 27.5 18.8125 C24.78920887 20.81644592 24.78920887 20.81644592 24 23.9375 C24 27.55519769 24.96768573 29.07346745 27 32 C27 32.66 27 33.32 27 34 C26.33613281 33.86980469 25.67226562 33.73960937 24.98828125 33.60546875 C19.1498405 32.59374679 19.1498405 32.59374679 14 35.125 C12.18458531 37.73465861 10.9498982 39.97759663 10 43 C8.00902154 40.01353231 7.05875074 37.40312738 6 34 C-1.02782042 32.9609283 -1.02782042 32.9609283 -8 34 C-7.505 33.13375 -7.01 32.2675 -6.5 31.375 C-4.47655489 26.8222485 -4.43528068 23.69415795 -6 19 C-8.50447516 17.78130071 -8.50447516 17.78130071 -11 17 C-11 16.01 -11 15.02 -11 14 C-8.98177083 13.57682292 -6.96354167 13.15364583 -4.9453125 12.73046875 C-2.62953451 12.07691162 -2.62953451 12.07691162 -1 9 C-0.54605448 6.72087062 -0.54605448 6.72087062 -0.375 4.3125 C-0.30023438 3.50425781 -0.22546875 2.69601562 -0.1484375 1.86328125 C-0.09945312 1.24839844 -0.05046875 0.63351562 0 0 Z " fill="#FADC74" transform="translate(42,433)"/>
<path d="M0 0 C3.9323173 2.65202795 6.18648186 5.30944559 7.6875 9.8125 C8.27517968 15.92436871 7.08496802 18.90504619 3.6875 23.8125 C-0.49811396 27.6176036 -4.55024476 28.17491486 -10.03125 28.0859375 C-14.28981809 27.5754927 -16.94112021 25.53847332 -19.56640625 22.234375 C-22.23763852 18.1018763 -23.09618096 14.77581272 -22.3125 9.8125 C-20.51854238 5.83491363 -18.323375 2.71105555 -15.0625 -0.1875 C-9.87259902 -2.07473672 -5.16765289 -1.85255481 0 0 Z " fill="#8076BD" transform="translate(445.3125,419.1875)"/>
<path d="M0 0 C3.9323173 2.65202795 6.18648186 5.30944559 7.6875 9.8125 C8.33872127 15.34788083 7.25929128 18.61684553 4.1640625 23.078125 C1.4098702 26.31320802 -1.31726231 27.529004 -5.484375 28.12109375 C-9.49402539 28.34310459 -11.94839411 27.98424806 -15.625 26.25 C-19.87691566 22.39361138 -21.99622656 19.02641405 -22.8125 13.3125 C-21.99622656 7.59858595 -19.87691566 4.23138862 -15.625 0.375 C-10.195389 -2.18613726 -5.60803771 -2.01042861 0 0 Z " fill="#F9CC59" transform="translate(263.3125,237.1875)"/>
<path d="M0 0 C4.3135997 1.72543988 7.91212142 4.79878091 10 9 C10.93826038 13.64228827 11.10401104 17.94551588 8.8203125 22.1953125 C6.07155864 25.59920976 3.36263322 28.06515002 -1 29 C-5.84275415 29.46121468 -7.99497747 29.5309553 -12.3125 27.25 C-15.75322428 24.36939363 -17.58195956 22.25412132 -19 18 C-19.39680449 12.74234055 -18.89498146 9.43897158 -16 5 C-11.19837667 -0.38718715 -7.07890853 -1.0689627 0 0 Z " fill="#C27843" transform="translate(305,58)"/>
<path d="M0 0 C0.515625 0.309375 1.03125 0.61875 1.5625 0.9375 C4.66665423 2.29059287 7.65115007 2.61359424 11 3 C10 6 10 6 7.5 7.8125 C4.78920887 9.81644592 4.78920887 9.81644592 4 12.9375 C4 16.55519769 4.96768573 18.07346745 7 21 C7 21.66 7 22.32 7 23 C6.02160156 22.80470703 6.02160156 22.80470703 5.0234375 22.60546875 C-0.12625053 21.66606924 -0.12625053 21.66606924 -5 23.046875 C-6.825109 24.55466808 -6.825109 24.55466808 -9 27 C-9.87144869 25.4470724 -10.72153657 23.88214564 -11.5625 22.3125 C-12.27599609 21.00732422 -12.27599609 21.00732422 -13.00390625 19.67578125 C-14.19921097 16.46486465 -14.3395856 15.15795844 -13 12 C-10.3125 9.90234375 -10.3125 9.90234375 -7 7.9375 C-2.67951452 5.63018036 -2.67951452 5.63018036 -0.125 1.75390625 C-0.08375 1.17511719 -0.0425 0.59632813 0 0 Z " fill="#F9CC59" transform="translate(62,444)"/>
<path d="M0 0 C3 1 3 1 4.66015625 3.625 C7.01099707 9.54665151 7.51620622 17.23245727 5.09765625 23.2421875 C4 24.875 4 24.875 2 27 C-1.89047538 26.11074848 -3.64183049 24.51888896 -5.8125 21.3125 C-8.06548613 17.34295301 -8.82223821 14.60453396 -8 10 C-5.94793808 5.71641828 -3.97950446 2.65300297 0 0 Z " fill="#9289C5" transform="translate(431,419)"/>
<path d="M0 0 C3.9819581 5.51348044 4.83707196 11.33603753 4 18 C2.90537748 20.89190665 1.56403581 23.31181346 0 26 C-3.53508103 25.70540991 -4.76203444 25.25118587 -7.25 22.625 C-10.09772043 18.35341936 -10.34316727 15.06171722 -10 10 C-8.07308165 5.0863582 -5.75740446 0 0 0 Z " fill="#D68854" transform="translate(296,59)"/>
<path d="M0 0 C1.90625 0.484375 1.90625 0.484375 4.40625 2.609375 C6.16209708 5.97474856 6.54281938 7.74452991 5.90625 11.484375 C3.96497646 14.14463874 2.56384911 15.24831378 -0.53125 16.359375 C-3.62341652 16.51021239 -5.37903446 15.95178881 -8.09375 14.484375 C-10.43543764 10.97184354 -10.58998677 9.61968144 -10.09375 5.484375 C-7.60378974 0.71195116 -5.15439468 -0.34619069 0 0 Z " fill="#000000" transform="translate(164.09375,459.515625)"/>
<path d="M0 0 C1.91015625 0.4453125 1.91015625 0.4453125 4.47265625 2.5078125 C6.3464113 6.33679022 6.03978326 8.37865526 4.91015625 12.4453125 C3.84765625 14.3828125 3.84765625 14.3828125 1.91015625 15.4453125 C-4.88229658 16.20002948 -4.88229658 16.20002948 -8.58984375 13.8828125 C-10.67377193 10.49642921 -10.64786472 8.35145932 -10.08984375 4.4453125 C-7.53315462 0.29069266 -4.61630624 -0.25885829 0 0 Z " fill="#000000" transform="translate(477.08984375,374.5546875)"/>
<path d="M0 0 C1.91015625 0.4453125 1.91015625 0.4453125 4.47265625 2.5078125 C6.3464113 6.33679022 6.03978326 8.37865526 4.91015625 12.4453125 C3.84765625 14.3828125 3.84765625 14.3828125 1.91015625 15.4453125 C-4.88229658 16.20002948 -4.88229658 16.20002948 -8.58984375 13.8828125 C-10.67377193 10.49642921 -10.64786472 8.35145932 -10.08984375 4.4453125 C-7.53315462 0.29069266 -4.61630624 -0.25885829 0 0 Z " fill="#000000" transform="translate(492.08984375,8.5546875)"/>
<path d="M0 0 C2.61379562 2.50015234 3.91384756 3.89327252 4.203125 7.609375 C4.35766423 17.96350365 4.35766423 17.96350365 1 23 C-0.75 22.9375 -0.75 22.9375 -3 22 C-6.44648595 17.21321396 -7.68200105 14.02434263 -7 8 C-5.7819397 4.12435358 -3.20864975 2.36426824 0 0 Z " fill="#F8DB73" transform="translate(248,239)"/>
<path d="M0 0 C1.010625 0.845625 2.02125 1.69125 3.0625 2.5625 C6.07652752 4.72061707 6.84127541 5 10.75 5 C13.8910708 4.03351668 14.97653473 3.44945796 17 1 C17.66 1 18.32 1 19 1 C19 3.64 19 6.28 19 9 C16.39086591 8.79883546 13.79167631 8.56552831 11.1875 8.3125 C10.08051758 8.23225586 10.08051758 8.23225586 8.95117188 8.15039062 C5.20285897 7.76029471 3.42478054 7.51880963 0.98828125 4.54296875 C0 2 0 2 0 0 Z " fill="#F7CB59" transform="translate(42,433)"/>
</svg>
