<?xml version="1.0" encoding="UTF-8"?>
<svg version="1.1" xmlns="http://www.w3.org/2000/svg" width="512" height="512">
<path d="M0 0 C1.01545898 0.19867676 2.03091797 0.39735352 3.07714844 0.60205078 C52.9758035 10.58327711 96.53871388 34.88580573 133 70 C133.7940625 70.7528125 134.588125 71.505625 135.40625 72.28125 C140.75597303 77.46114055 145.38660506 83.16405541 150 89 C151.19109375 90.48306641 151.19109375 90.48306641 152.40625 91.99609375 C175.32205725 121.03970389 191.22147176 154.85685587 199.6875 190.8125 C199.97306763 191.99936401 199.97306763 191.99936401 200.2644043 193.21020508 C204.22851721 210.89052902 205.555362 228.61292655 205.4375 246.6875 C205.43293793 248.18546112 205.43293793 248.18546112 205.42828369 249.71368408 C205.35621635 265.78341917 204.43972751 281.25213186 201 297 C200.78037598 298.02625488 200.56075195 299.05250977 200.33447266 300.10986328 C191.83138831 338.85817193 174.61772522 375.56726438 149 406 C148.57138672 406.51739746 148.14277344 407.03479492 147.70117188 407.56787109 C137.18329253 420.25442306 126.04159425 431.87272849 113 442 C111.99453125 442.79921875 110.9890625 443.5984375 109.953125 444.421875 C78.81608831 469.02119078 42.407202 485.37466959 3.5625 493.3125 C2.84384766 493.45977539 2.12519531 493.60705078 1.38476562 493.75878906 C-13.92479425 496.66937769 -29.0771438 497.37470606 -44.625 497.3125 C-45.59588562 497.31034485 -46.56677124 497.3081897 -47.56707764 497.30596924 C-61.90585186 497.25491637 -75.90546967 496.85949913 -90 494 C-91.01545898 493.80132324 -92.03091797 493.60264648 -93.07714844 493.39794922 C-142.9758035 483.41672289 -186.53871388 459.11419427 -223 424 C-223.7940625 423.2471875 -224.588125 422.494375 -225.40625 421.71875 C-230.75597303 416.53885945 -235.38660506 410.83594459 -240 405 C-240.7940625 404.01128906 -241.588125 403.02257812 -242.40625 402.00390625 C-266.9776499 370.86198961 -283.32468106 334.48759715 -291.25 295.6875 C-291.47671387 294.57942993 -291.47671387 294.57942993 -291.70800781 293.44897461 C-292.18439803 290.97158418 -292.60252786 288.49133778 -293 286 C-293.17805176 284.88423584 -293.35610352 283.76847168 -293.53955078 282.61889648 C-295.19998488 270.98027732 -295.3987437 259.43103747 -295.375 247.6875 C-295.37445618 246.6738739 -295.37391235 245.6602478 -295.37335205 244.61590576 C-295.33347417 228.41878779 -294.46747801 212.87491635 -291 197 C-290.78037598 195.97374512 -290.56075195 194.94749023 -290.33447266 193.89013672 C-279.82149525 145.98280374 -255.85138923 104.15003587 -222 69 C-221.2471875 68.2059375 -220.494375 67.411875 -219.71875 66.59375 C-214.53885945 61.24402697 -208.83594459 56.61339494 -203 52 C-202.01128906 51.2059375 -201.02257812 50.411875 -200.00390625 49.59375 C-167.66655102 24.07913264 -130.33332447 7.86607287 -90 0 C-89.17274414 -0.16661133 -88.34548828 -0.33322266 -87.49316406 -0.50488281 C-59.91781494 -5.80488028 -27.50199116 -5.57960557 0 0 Z " fill="#000000" transform="translate(301,9)"/>
<path d="M0 0 C6.24868785 2.01570576 11.04475449 1.8455818 17.4375 0.8125 C23.39822487 0.02270007 29.27488921 -0.35685743 35.28515625 -0.390625 C36.1001207 -0.39632507 36.91508514 -0.40202515 37.75474548 -0.40789795 C39.46986625 -0.41727752 41.18500446 -0.4238536 42.90014648 -0.42773438 C45.4695746 -0.43738572 48.03818243 -0.46845442 50.60742188 -0.5 C73.15227139 -0.6449559 94.89171609 3.75708542 112.4375 18.8125 C120.4538836 28.28492062 123.07657923 36.6381682 122.78125 48.98046875 C120.91379854 69.79830831 107.3251584 87.18241961 93.4375 101.8125 C92.75010742 102.54871582 92.75010742 102.54871582 92.04882812 103.29980469 C82.74412411 113.21617251 72.41264624 121.56090891 61.26123047 129.32836914 C57.08558104 132.29588185 54.46566791 134.66809561 52.1875 139.375 C48.05799263 146.9646197 42.5087797 152.75573497 36.4375 158.8125 C35.6846875 159.57691406 34.931875 160.34132813 34.15625 161.12890625 C16.95645879 177.5264684 -6.32245064 184.00644476 -29.5 184.125 C-30.55421143 184.13063965 -31.60842285 184.1362793 -32.69458008 184.14208984 C-38.20894394 184.09055781 -43.15055938 183.5753862 -48.49560547 182.25439453 C-55.69179807 180.71587473 -62.78317148 182.40250596 -69.875 183.75 C-100.15593169 189.45159925 -138.79802463 191.7460571 -165.5625 173.8125 C-175.62769826 166.3645137 -181.42183121 158.2084658 -183.5625 145.8125 C-185.42465632 126.55321201 -176.11722992 109.44148792 -164.23046875 94.9375 C-152.97121012 81.61313267 -140.63094135 70.43119922 -126.7109375 59.92578125 C-126.02805664 59.40806152 -125.34517578 58.8903418 -124.64160156 58.35693359 C-123.23912632 57.31512307 -121.81840294 56.29749686 -120.38183594 55.30322266 C-115.93212948 52.1720614 -113.40089033 49.61242805 -111.0625 44.5625 C-107.90911606 38.2485326 -104.13274505 33.15587002 -99.5625 27.8125 C-98.4178125 26.2965625 -98.4178125 26.2965625 -97.25 24.75 C-73.09614808 -1.65072187 -33.75769208 -11.42385598 0 0 Z " fill="#959595" transform="translate(286.5625,167.1875)"/>
<path d="M0 0 C2.52517907 0.00316134 5.04918317 -0.02040394 7.57421875 -0.0456543 C30.01416172 -0.13351186 51.71062922 4.34285386 69.16015625 19.31567383 C77.17653985 28.78809444 79.79923548 37.14134202 79.50390625 49.48364258 C77.63645479 70.30148213 64.04781465 87.68559344 50.16015625 102.31567383 C49.47276367 103.05188965 49.47276367 103.05188965 48.77148438 103.80297852 C39.46678036 113.71934634 29.13530249 122.06408273 17.98388672 129.83154297 C13.80823729 132.79905568 11.18832416 135.17126944 8.91015625 139.87817383 C4.78064888 147.46779353 -0.76856405 153.2589088 -6.83984375 159.31567383 C-7.59265625 160.08008789 -8.34546875 160.84450195 -9.12109375 161.63208008 C-26.32088496 178.02964222 -49.59979439 184.50961859 -72.77734375 184.62817383 C-73.83155518 184.63381348 -74.8857666 184.63945312 -75.97192383 184.64526367 C-81.48628769 184.59373164 -86.42790313 184.07856003 -91.77294922 182.75756836 C-98.96914182 181.21904856 -106.06051523 182.90567978 -113.15234375 184.25317383 C-143.43327544 189.95477307 -182.07536838 192.24923093 -208.83984375 174.31567383 C-218.90504201 166.86768753 -224.69917496 158.71163962 -226.83984375 146.31567383 C-228.70200007 127.05638583 -219.39457367 109.94466175 -207.5078125 95.44067383 C-197.41520757 83.49694113 -186.54124865 73.06607195 -174.15234375 63.50317383 C-173.43925049 62.95145508 -172.72615723 62.39973633 -171.99145508 61.83129883 C-167.76427551 58.61657912 -163.51102114 55.8441093 -158.83984375 53.31567383 C-159.02160156 53.87512695 -159.20335937 54.43458008 -159.390625 55.01098633 C-162.43173767 64.71135596 -164.97891463 74.10828494 -164.58984375 84.31567383 C-164.88969426 90.15624026 -166.60814609 92.71342018 -170.71191406 96.56567383 C-172.73651502 98.33460845 -174.77999632 100.07866552 -176.83203125 101.81567383 C-187.44220346 110.82250879 -195.44268194 123.12418841 -199.83984375 136.31567383 C-200.18274388 141.63062583 -200.3936963 145.07397885 -196.83984375 149.31567383 C-181.79948295 162.64509411 -157.52412803 161.09179025 -138.83984375 160.31567383 C-105.20869672 158.00896494 -70.16091213 147.19681298 -39.94970703 132.35229492 C-37.87978003 131.33529538 -35.79751388 130.3487541 -33.7109375 129.36645508 C-11.3894097 118.71201404 9.45359921 104.60189717 27.16015625 87.31567383 C28.02898437 86.5087207 28.8978125 85.70176758 29.79296875 84.87036133 C39.94264166 75.2173085 51.64089434 61.0470867 52.34765625 46.44067383 C52.29060426 42.99219773 51.94331247 40.3470394 50.16015625 37.31567383 C48.36181355 36.26982746 48.36181355 36.26982746 46.16015625 35.31567383 C45.32742188 34.92508789 44.4946875 34.53450195 43.63671875 34.13208008 C33.56539416 29.70345653 23.71337398 27.40265134 12.72265625 26.87817383 C6.8690897 26.55876986 3.97973628 25.52872718 -0.83984375 22.31567383 C-2.22649965 21.88880133 -3.62369223 21.49532111 -5.02734375 21.12817383 C-10.43548698 19.45989914 -14.29139427 16.07511859 -18.6875 12.61254883 C-23.41460317 9.16826548 -28.524822 6.71874217 -33.83984375 4.31567383 C-24.98530256 -1.58735363 -10.35196216 -0.0269999 0 0 Z " fill="#FCFCFC" transform="translate(329.83984375,166.684326171875)"/>
<path d="M0 0 C0.08636719 0.95777344 0.17273438 1.91554688 0.26171875 2.90234375 C1.32638902 13.37381398 3.75764295 23.00066987 7 33 C7.74636719 32.51402344 8.49273437 32.02804687 9.26171875 31.52734375 C12.90077981 29.4975679 15.97595207 29.35794411 20 30 C27.90542884 32.30255209 33.38712034 38.44947925 37.390625 45.421875 C40.59650148 52.5109258 41.22738438 59.61648437 39.125 67.125 C33.66999585 71.93823895 22.13095164 70.1930419 15.1875 70.1875 C13.60473267 70.1862915 13.60473267 70.1862915 11.98999023 70.18505859 C4.4540613 70.12585311 -2.61699843 69.58049285 -10 68 C-10.79921875 67.86722656 -11.5984375 67.73445313 -12.421875 67.59765625 C-20.71322605 66.0966358 -28.6066787 62.61116805 -34 56 C-36.45186607 48.6444018 -34.74970661 43.05247465 -31.65625 36.1953125 C-27.65785254 28.48142306 -10.42788888 0 0 0 Z " fill="#020202" transform="translate(164,258)"/>
<path d="M0 0 C1.68526595 1.02326927 3.37040732 2.04674804 5.05371094 3.07324219 C8.66400781 4.79234491 12.4981923 4.73504429 16.4375 4.9375 C29.03705094 5.89980408 44.28266876 8.23308575 53 18.3125 C55.70739557 25.58862559 53.59417052 31.13459915 50.53515625 37.92578125 C44.18687362 50.63849989 35.07416598 61.14066722 24 70 C23.90203125 68.97003906 23.8040625 67.94007813 23.703125 66.87890625 C22.62244426 56.33540563 20.64478514 46.25817147 18 36 C17.34 36 16.68 36 16 36 C15.7525 36.61875 15.505 37.2375 15.25 37.875 C13.69447068 40.51939985 12.92378529 41.07669938 10 42 C3.75802543 42.84636943 0.25866913 41.6798654 -4.8203125 37.98046875 C-10.77348025 32.57140773 -15.52801035 25.52613234 -16.37109375 17.44140625 C-16.57282759 5.65777637 -16.57282759 5.65777637 -14.1875 2.0625 C-9.57359671 -0.92296683 -5.34387768 -1.10315974 0 0 Z " fill="#020202" transform="translate(329,188)"/>
<path d="M0 0 C0.495 0.99 0.495 0.99 1 2 C-3.26966112 10.88981682 -10.15376152 18.05637548 -17 25 C-18.09634766 26.11568359 -18.09634766 26.11568359 -19.21484375 27.25390625 C-38.27282028 45.38915022 -63.5549275 50.78426824 -89 50.3046875 C-96.22485126 50.03786061 -103.02760056 48.90465546 -110 47 C-110 46.67 -110 46.34 -110 46 C-109.20368164 45.82476807 -108.40736328 45.64953613 -107.58691406 45.46899414 C-69.76503898 36.96991504 -32.12988774 21.89516914 0 0 Z " fill="#959595" transform="translate(340,301)"/>
<path d="M0 0 C5.0972549 3.03874812 6.92266482 6.53203015 9.5703125 11.71484375 C11.62938984 15.00599196 14.31163826 17.19139659 17.328125 19.58984375 C19 21 19 21 20 23 C20.13415472 25.6723621 20.04318541 28.32250488 20 31 C17.02172432 32.10657994 14.04221615 33.20980534 11.0625 34.3125 C9.81629883 34.7755957 9.81629883 34.7755957 8.54492188 35.24804688 C4.39145976 36.78337334 0.22983341 38.29236433 -3.95703125 39.734375 C-4.66964111 39.98026367 -5.38225098 40.22615234 -6.11645508 40.47949219 C-8.80110485 41.22138115 -10.43295736 41.0696011 -13 40 C-18.73475547 36.50319788 -20.94783653 31.15649042 -23 25 C-23.85254146 18.93477644 -22.91834938 14.34958675 -19.67578125 9.15234375 C-14.6059449 2.64073576 -8.54935591 -2.24642811 0 0 Z " fill="#131313" transform="translate(251,277)"/>
<path d="M0 0 C7.45142714 2.3303691 12.87449147 9.41322351 16.4375 16.0625 C19.03642282 22.34415175 18.31580716 29.34173239 18 36 C17.34 36 16.68 36 16 36 C15.7525 36.61875 15.505 37.2375 15.25 37.875 C13.69447068 40.51939985 12.92378529 41.07669938 10 42 C3.75802543 42.84636943 0.25866913 41.6798654 -4.8203125 37.98046875 C-10.77348025 32.57140773 -15.52801035 25.52613234 -16.37109375 17.44140625 C-16.57282759 5.65777637 -16.57282759 5.65777637 -14.1875 2.0625 C-9.46929975 -0.99045311 -5.46027193 -0.89693228 0 0 Z " fill="#131313" transform="translate(329,188)"/>
<path d="M0 0 C7.62548509 3.3154283 13.09344203 9.8158903 16.4765625 17.296875 C18.72756342 23.70972651 18.93180749 30.01028574 17.1015625 36.546875 C11.44954131 41.53395252 -0.51306128 39.54072973 -7.6484375 39.484375 C-8.74800781 39.47986328 -9.84757813 39.47535156 -10.98046875 39.47070312 C-13.66151753 39.45904639 -16.34244682 39.44268517 -19.0234375 39.421875 C-19.0234375 39.091875 -19.0234375 38.761875 -19.0234375 38.421875 C-12.5884375 37.926875 -12.5884375 37.926875 -6.0234375 37.421875 C-7.0959375 36.16375 -8.1684375 34.905625 -9.2734375 33.609375 C-15.16530229 25.99655984 -17.93973757 18.03367573 -17.0234375 8.421875 C-16.9409375 7.2875 -16.8584375 6.153125 -16.7734375 4.984375 C-16.0234375 2.421875 -16.0234375 2.421875 -14.0859375 1.109375 C-13.065 0.7690625 -13.065 0.7690625 -12.0234375 0.421875 C-8.23552562 -1.47208094 -3.98634239 -1.13895497 0 0 Z " fill="#141414" transform="translate(186.0234375,288.578125)"/>
<path d="M0 0 C3.79650502 1.7256841 5.48616059 3.14841744 7 7 C8.10008283 15.83903759 6.66002327 22.72586535 1.609375 30.00390625 C-1.41303874 33.81373831 -4.28013284 36.45881889 -9 38 C-13.04004349 37.93034408 -15.18668517 37.64209066 -18.375 35.125 C-22.01937278 30.35928175 -21.51072346 24.72310706 -21 19 C-19.20348242 10.72145276 -14.69215477 5.94806038 -8 1 C-5.17998673 -0.41000664 -3.12992745 -0.24548451 0 0 Z " fill="#141414" transform="translate(221,210)"/>
<path d="M0 0 C4.28885139 2.32628512 7.16602742 5.47904434 9 10 C9.71951251 14.60153351 9.43337657 18.11657853 7.375 22.3125 C4.76341793 25.26771129 2.51788953 27.2051584 -1 29 C-3.515625 28.88671875 -3.515625 28.88671875 -6 28 C-7.51953125 25.9609375 -7.51953125 25.9609375 -8.8125 23.375 C-11.72673674 18.07915465 -15.23534245 14.65209792 -20 11 C-19.38011163 6.43884608 -19.38011163 6.43884608 -17.66015625 4.453125 C-11.67278632 -0.05570126 -7.50902743 -1.10670239 0 0 Z " fill="#141414" transform="translate(276,209)"/>
<path d="M0 0 C3.55013017 2.89615883 4.85353164 4.81730221 5.41796875 9.375 C5 13 5 13 2.61328125 15.1875 C1.52402344 15.785625 0.43476563 16.38375 -0.6875 17 C-1.26604736 17.32613281 -1.84459473 17.65226562 -2.44067383 17.98828125 C-4.28108356 19.01738096 -6.13941291 20.00794423 -8 21 C-9.23052697 21.68506228 -10.45971874 22.3725289 -11.6875 23.0625 C-20.57329237 28 -20.57329237 28 -23 28 C-23.69820689 19.83873727 -22.80410824 13.76942524 -18 7 C-12.37909558 0.99634917 -8.42942663 -1.92250081 0 0 Z " fill="#161616" transform="translate(319,268)"/>
<path d="M0 0 C2 1 2 1 2.71875 3.14453125 C2.9765625 4.02496094 3.234375 4.90539062 3.5 5.8125 C4.74389114 9.15665348 5.42588418 10.64162896 8.484375 12.55078125 C10.97167226 13.51689247 13.41583757 14.33916457 16 15 C16 15.66 16 16.32 16 17 C15.00419922 17.24169922 15.00419922 17.24169922 13.98828125 17.48828125 C9.62635463 18.83188201 6.78822949 19.79600111 4.22265625 23.71484375 C3.00926006 26.447623 1.93058219 29.15927541 1 32 C-0.79068573 29.3139714 -1.66055791 27.3373411 -2.625 24.3125 C-2.88539063 23.50425781 -3.14578125 22.69601562 -3.4140625 21.86328125 C-3.60742188 21.24839844 -3.80078125 20.63351562 -4 20 C-4.886875 19.87625 -5.77375 19.7525 -6.6875 19.625 C-9.70387502 19.05587264 -12.20326054 18.23385564 -15 17 C-15 16.34 -15 15.68 -15 15 C-14.00419922 14.75830078 -14.00419922 14.75830078 -12.98828125 14.51171875 C-8.62635463 13.16811799 -5.78822949 12.20399889 -3.22265625 8.28515625 C-2.00926006 5.552377 -0.93058219 2.84072459 0 0 Z " fill="#F2CB00" transform="translate(373,321)"/>
<path d="M0 0 C2.09164171 2.59887908 3.06951741 4.22899852 4.0625 7.5 C5.11856277 10.19818234 5.82872304 10.90493851 8.4140625 12.33984375 C10.9213128 13.33214985 13.41925678 14.22045092 16 15 C16 15.66 16 16.32 16 17 C14.73160474 17.50615298 13.46016898 18.00469099 12.1875 18.5 C11.47980469 18.7784375 10.77210938 19.056875 10.04296875 19.34375 C8 20 8 20 5 20 C4.80664062 20.69867188 4.61328125 21.39734375 4.4140625 22.1171875 C4.02347656 23.48230469 4.02347656 23.48230469 3.625 24.875 C3.24214844 26.23238281 3.24214844 26.23238281 2.8515625 27.6171875 C2 30 2 30 0 32 C-0.6708712 30.3767313 -1.33657029 28.75132422 -2 27.125 C-2.37125 26.22007812 -2.7425 25.31515625 -3.125 24.3828125 C-4 22 -4 22 -4 20 C-4.70125 19.87625 -5.4025 19.7525 -6.125 19.625 C-9.17656387 18.96161655 -12.05340938 18.02788045 -15 17 C-15 16.34 -15 15.68 -15 15 C-14.00419922 14.75830078 -14.00419922 14.75830078 -12.98828125 14.51171875 C-8.62635463 13.16811799 -5.78822949 12.20399889 -3.22265625 8.28515625 C-2.00926006 5.552377 -0.93058219 2.84072459 0 0 Z " fill="#F3CC00" transform="translate(332,363)"/>
<path d="M0 0 C1.9096418 2.86446271 2.3093442 4.26255094 3 7.5 C3.64222793 9.93337984 3.64222793 9.93337984 5 12 C8.22334149 13.67155512 11.43029301 14.41732738 15 15 C15 15.66 15 16.32 15 17 C13.98679688 17.24169922 13.98679688 17.24169922 12.953125 17.48828125 C7.19507547 19.23437528 7.19507547 19.23437528 3.4453125 23.71484375 C2.47715926 26.46030021 1.65510915 29.16445293 1 32 C0.34 31.67 -0.32 31.34 -1 31 C-1.5084635 29.40487735 -1.9822366 27.79861347 -2.4375 26.1875 C-3.73457423 22.68690197 -4.42749247 21.32797329 -7.70703125 19.44921875 C-10.45520538 18.47906742 -13.16134458 17.65582729 -16 17 C-15.67 16.34 -15.34 15.68 -15 15 C-13.42632353 14.49001225 -11.84069036 14.0166468 -10.25 13.5625 C-6.74119892 12.26052367 -5.30098383 11.45943127 -3.2265625 8.29296875 C-2.01158525 5.5575142 -0.93153575 2.84363544 0 0 Z " fill="#F4CD00" transform="translate(176,117)"/>
<path d="M0 0 C0.66 0 1.32 0 2 0 C2.17273438 0.67546875 2.34546875 1.3509375 2.5234375 2.046875 C4.259239 7.68990221 4.259239 7.68990221 8.4921875 11.5546875 C10.97675317 12.51895236 13.41891486 13.33995151 16 14 C16 14.66 16 15.32 16 16 C15.32453125 16.17273438 14.6490625 16.34546875 13.953125 16.5234375 C8.31009779 18.259239 8.31009779 18.259239 4.4453125 22.4921875 C3.48104764 24.97675317 2.66004849 27.41891486 2 30 C1.34 30 0.68 30 0 30 C-0.17273438 29.32453125 -0.34546875 28.6490625 -0.5234375 27.953125 C-2.259239 22.31009779 -2.259239 22.31009779 -6.4921875 18.4453125 C-8.97675317 17.48104764 -11.41891486 16.66004849 -14 16 C-14 15.34 -14 14.68 -14 14 C-13.32453125 13.82726562 -12.6490625 13.65453125 -11.953125 13.4765625 C-6.31009779 11.740761 -6.31009779 11.740761 -2.4453125 7.5078125 C-1.48104764 5.02324683 -0.66004849 2.58108514 0 0 Z " fill="#F6CE00" transform="translate(134,160)"/>
<path d="M0 0 C0.66 0 1.32 0 2 0 C2.11214844 0.61488281 2.22429687 1.22976563 2.33984375 1.86328125 C2.98513415 4.5077066 3.64058649 6.63361352 5 9 C7.88195705 10.65559235 10.7440112 11.40614041 14 12 C12 14 12 14 8.5625 15.0625 C5.96266069 16.09160306 5.17038563 16.66751138 3.875 19.1953125 C3.13943864 21.45150553 2.51002369 23.68303523 2 26 C1.34 25.67 0.68 25.34 0 25 C-0.350625 23.741875 -0.70125 22.48375 -1.0625 21.1875 C-2.03820603 18.32714075 -2.62379189 17.24299563 -5.1953125 15.58203125 C-7.440768 14.60712346 -9.66822291 13.74304008 -12 13 C-9.79326935 11.20192317 -8.21458969 10.05757284 -5.4375 9.3125 C-2.03899294 7.48253466 -1.62758289 5.24144523 -0.48046875 1.6796875 C-0.32191406 1.12539063 -0.16335938 0.57109375 0 0 Z " fill="#F1CA00" transform="translate(377,370)"/>
<path d="M0 0 C2 1 2 1 3.125 3.375 C4 6 4 6 4 9 C6.97 9.99 9.94 10.98 13 12 C12 14 12 14 9.625 15.125 C7 16 7 16 4 16 C3.01 18.97 2.02 21.94 1 25 C-1.50298434 22.06171403 -2.46930939 19.82097239 -3 16 C-3.7425 15.87625 -4.485 15.7525 -5.25 15.625 C-7.80141485 15.04513299 -9.7267573 14.26291261 -12 13 C-11 11 -11 11 -9.15234375 10.3671875 C-8.05599609 10.12355469 -8.05599609 10.12355469 -6.9375 9.875 C-6.20402344 9.70742187 -5.47054687 9.53984375 -4.71484375 9.3671875 C-4.14894531 9.24601562 -3.58304688 9.12484375 -3 9 C-2.87625 8.2575 -2.7525 7.515 -2.625 6.75 C-2.04513299 4.19858515 -1.26291261 2.2732427 0 0 Z " fill="#F4CC00" transform="translate(130,117)"/>
</svg>
